G04*
G04 #@! TF.GenerationSoftware,Altium Limited,Altium Designer,22.10.1 (41)*
G04*
G04 Layer_Physical_Order=2*
G04 Layer_Color=16711680*
%FSLAX44Y44*%
%MOMM*%
G71*
G04*
G04 #@! TF.SameCoordinates,1C1781D4-92CB-4499-AA76-0FF4777072F7*
G04*
G04*
G04 #@! TF.FilePolarity,Positive*
G04*
G01*
G75*
%ADD15C,0.2540*%
%ADD35C,0.7620*%
%ADD36C,1.7780*%
%ADD37C,1.9050*%
%ADD40C,3.1750*%
%ADD41C,1.8750*%
%ADD42R,1.8750X1.8750*%
%ADD43R,1.8750X1.8750*%
%ADD44C,1.9500*%
%ADD45R,1.6500X1.6500*%
%ADD46C,1.6500*%
%ADD47R,1.6500X1.6500*%
%ADD48C,1.2000*%
%ADD49R,1.2000X1.2000*%
%ADD50C,1.6650*%
%ADD51R,1.6650X1.6650*%
%ADD52C,1.2700*%
%ADD53C,1.7780*%
%ADD54C,5.0800*%
%ADD55C,3.1750*%
G36*
X1765300Y1256401D02*
Y273050D01*
X1762760Y270510D01*
X1663519D01*
X1663033Y271683D01*
X1673575Y282225D01*
X1675509Y284745D01*
X1676725Y287680D01*
X1677139Y290830D01*
Y320040D01*
X1676725Y323190D01*
X1675509Y326125D01*
X1673575Y328645D01*
X1666875Y335345D01*
Y335645D01*
X1666964Y336550D01*
X1666875Y337455D01*
Y338364D01*
X1666698Y339255D01*
X1666609Y340160D01*
X1666345Y341030D01*
X1666167Y341922D01*
X1665820Y342761D01*
X1665556Y343631D01*
X1665127Y344433D01*
X1664779Y345273D01*
X1664274Y346029D01*
X1663846Y346830D01*
X1663269Y347533D01*
X1662764Y348289D01*
X1662121Y348932D01*
X1661544Y349634D01*
X1660842Y350211D01*
X1660199Y350854D01*
X1659443Y351359D01*
X1658740Y351936D01*
X1657939Y352364D01*
X1657183Y352869D01*
X1656343Y353217D01*
X1655541Y353646D01*
X1654671Y353909D01*
X1653831Y354257D01*
X1652940Y354435D01*
X1652070Y354699D01*
X1651165Y354788D01*
X1650274Y354965D01*
X1649365D01*
X1648460Y355054D01*
X1536700D01*
X1533090Y354699D01*
X1529619Y353646D01*
X1526420Y351936D01*
X1523616Y349634D01*
X1521314Y346830D01*
X1519604Y343631D01*
X1518551Y340160D01*
X1518196Y336550D01*
X1518551Y332940D01*
X1519604Y329469D01*
X1521314Y326270D01*
X1523616Y323466D01*
X1526420Y321164D01*
X1529619Y319454D01*
X1533090Y318401D01*
X1536700Y318046D01*
X1648460D01*
X1649365Y318135D01*
X1649665D01*
X1652801Y314999D01*
Y295871D01*
X1645959Y289029D01*
X1183601D01*
X1167869Y304761D01*
Y334481D01*
X1167990Y334932D01*
Y338168D01*
X1167152Y341294D01*
X1165534Y344096D01*
X1163246Y346384D01*
X1160444Y348003D01*
X1157318Y348840D01*
X1154082D01*
X1150956Y348003D01*
X1148154Y346384D01*
X1145866Y344096D01*
X1144248Y341294D01*
X1143410Y338168D01*
Y334932D01*
X1143531Y334481D01*
Y299720D01*
X1143945Y296570D01*
X1145161Y293635D01*
X1147095Y291115D01*
X1166527Y271683D01*
X1166041Y270510D01*
X269240D01*
Y1254760D01*
X1764401Y1257299D01*
X1765300Y1256401D01*
D02*
G37*
%LPC*%
G36*
X480280Y1232530D02*
X480130D01*
Y1223010D01*
X489650D01*
Y1223160D01*
X488915Y1225905D01*
X487494Y1228365D01*
X485485Y1230374D01*
X483025Y1231795D01*
X480280Y1232530D01*
D02*
G37*
G36*
X477590D02*
X477439D01*
X474695Y1231795D01*
X472235Y1230374D01*
X470226Y1228365D01*
X468805Y1225905D01*
X468070Y1223160D01*
Y1223010D01*
X477590D01*
Y1232530D01*
D02*
G37*
G36*
X671650Y1231260D02*
X671500D01*
Y1221740D01*
X681020D01*
Y1221890D01*
X680285Y1224635D01*
X678864Y1227095D01*
X676855Y1229104D01*
X674395Y1230525D01*
X671650Y1231260D01*
D02*
G37*
G36*
X668960D02*
X668810D01*
X666065Y1230525D01*
X663605Y1229104D01*
X661596Y1227095D01*
X660175Y1224635D01*
X659440Y1221890D01*
Y1221740D01*
X668960D01*
Y1231260D01*
D02*
G37*
G36*
X514650Y1232530D02*
X493070D01*
Y1210950D01*
X514650D01*
Y1232530D01*
D02*
G37*
G36*
X489650Y1220470D02*
X480130D01*
Y1210950D01*
X480280D01*
X483025Y1211685D01*
X485485Y1213106D01*
X487494Y1215115D01*
X488915Y1217575D01*
X489650Y1220320D01*
Y1220470D01*
D02*
G37*
G36*
X477590D02*
X468070D01*
Y1220320D01*
X468805Y1217575D01*
X470226Y1215115D01*
X472235Y1213106D01*
X474695Y1211685D01*
X477439Y1210950D01*
X477590D01*
Y1220470D01*
D02*
G37*
G36*
X455280Y1232530D02*
X452439D01*
X449695Y1231795D01*
X447235Y1230374D01*
X445226Y1228365D01*
X443805Y1225905D01*
X443070Y1223160D01*
Y1220320D01*
X443805Y1217575D01*
X445226Y1215115D01*
X447235Y1213106D01*
X449695Y1211685D01*
X452439Y1210950D01*
X455280D01*
X458025Y1211685D01*
X460485Y1213106D01*
X462494Y1215115D01*
X463915Y1217575D01*
X464650Y1220320D01*
Y1223160D01*
X463915Y1225905D01*
X462494Y1228365D01*
X460485Y1230374D01*
X458025Y1231795D01*
X455280Y1232530D01*
D02*
G37*
G36*
X430280D02*
X427439D01*
X424695Y1231795D01*
X422235Y1230374D01*
X420226Y1228365D01*
X418805Y1225905D01*
X418070Y1223160D01*
Y1220320D01*
X418805Y1217575D01*
X420226Y1215115D01*
X422235Y1213106D01*
X424695Y1211685D01*
X427439Y1210950D01*
X430280D01*
X433025Y1211685D01*
X435485Y1213106D01*
X437494Y1215115D01*
X438915Y1217575D01*
X439650Y1220320D01*
Y1223160D01*
X438915Y1225905D01*
X437494Y1228365D01*
X435485Y1230374D01*
X433025Y1231795D01*
X430280Y1232530D01*
D02*
G37*
G36*
X405280D02*
X402439D01*
X399695Y1231795D01*
X397235Y1230374D01*
X395226Y1228365D01*
X393805Y1225905D01*
X393070Y1223160D01*
Y1220320D01*
X393805Y1217575D01*
X395226Y1215115D01*
X397235Y1213106D01*
X399695Y1211685D01*
X402439Y1210950D01*
X405280D01*
X408025Y1211685D01*
X410485Y1213106D01*
X412494Y1215115D01*
X413915Y1217575D01*
X414650Y1220320D01*
Y1223160D01*
X413915Y1225905D01*
X412494Y1228365D01*
X410485Y1230374D01*
X408025Y1231795D01*
X405280Y1232530D01*
D02*
G37*
G36*
X681020Y1219200D02*
X671500D01*
Y1209680D01*
X671650D01*
X674395Y1210415D01*
X676855Y1211836D01*
X678864Y1213845D01*
X680285Y1216305D01*
X681020Y1219050D01*
Y1219200D01*
D02*
G37*
G36*
X668960D02*
X659440D01*
Y1219050D01*
X660175Y1216305D01*
X661596Y1213845D01*
X663605Y1211836D01*
X666065Y1210415D01*
X668810Y1209680D01*
X668960D01*
Y1219200D01*
D02*
G37*
G36*
X646650Y1231260D02*
X643810D01*
X641065Y1230525D01*
X638605Y1229104D01*
X636596Y1227095D01*
X635175Y1224635D01*
X634440Y1221890D01*
Y1219050D01*
X635175Y1216305D01*
X636596Y1213845D01*
X638605Y1211836D01*
X641065Y1210415D01*
X643810Y1209680D01*
X646650D01*
X649395Y1210415D01*
X651855Y1211836D01*
X653864Y1213845D01*
X655285Y1216305D01*
X656020Y1219050D01*
Y1221890D01*
X655285Y1224635D01*
X653864Y1227095D01*
X651855Y1229104D01*
X649395Y1230525D01*
X646650Y1231260D01*
D02*
G37*
G36*
X621651D02*
X618810D01*
X616065Y1230525D01*
X613605Y1229104D01*
X611596Y1227095D01*
X610175Y1224635D01*
X609440Y1221890D01*
Y1219050D01*
X610175Y1216305D01*
X611596Y1213845D01*
X613605Y1211836D01*
X616065Y1210415D01*
X618810Y1209680D01*
X621651D01*
X624395Y1210415D01*
X626855Y1211836D01*
X628864Y1213845D01*
X630285Y1216305D01*
X631020Y1219050D01*
Y1221890D01*
X630285Y1224635D01*
X628864Y1227095D01*
X626855Y1229104D01*
X624395Y1230525D01*
X621651Y1231260D01*
D02*
G37*
G36*
X596651D02*
X593810D01*
X591065Y1230525D01*
X588605Y1229104D01*
X586596Y1227095D01*
X585175Y1224635D01*
X584440Y1221890D01*
Y1219050D01*
X585175Y1216305D01*
X586596Y1213845D01*
X588605Y1211836D01*
X591065Y1210415D01*
X593810Y1209680D01*
X596651D01*
X599395Y1210415D01*
X601855Y1211836D01*
X603864Y1213845D01*
X605285Y1216305D01*
X606020Y1219050D01*
Y1221890D01*
X605285Y1224635D01*
X603864Y1227095D01*
X601855Y1229104D01*
X599395Y1230525D01*
X596651Y1231260D01*
D02*
G37*
G36*
X571651D02*
X568810D01*
X566065Y1230525D01*
X563605Y1229104D01*
X561596Y1227095D01*
X560175Y1224635D01*
X559440Y1221890D01*
Y1219050D01*
X560175Y1216305D01*
X561596Y1213845D01*
X563605Y1211836D01*
X566065Y1210415D01*
X568810Y1209680D01*
X571651D01*
X574395Y1210415D01*
X576855Y1211836D01*
X578864Y1213845D01*
X580285Y1216305D01*
X581020Y1219050D01*
Y1221890D01*
X580285Y1224635D01*
X578864Y1227095D01*
X576855Y1229104D01*
X574395Y1230525D01*
X571651Y1231260D01*
D02*
G37*
G36*
X1217580Y1204880D02*
X1210310D01*
Y1197610D01*
X1217580D01*
Y1204880D01*
D02*
G37*
G36*
X1207770D02*
X1200500D01*
Y1197610D01*
X1207770D01*
Y1204880D01*
D02*
G37*
G36*
X1729399Y1247140D02*
X1725001D01*
X1720657Y1246452D01*
X1716475Y1245093D01*
X1712556Y1243096D01*
X1708998Y1240511D01*
X1705889Y1237402D01*
X1703304Y1233844D01*
X1701307Y1229925D01*
X1699948Y1225743D01*
X1699260Y1221399D01*
Y1217001D01*
X1699948Y1212657D01*
X1701307Y1208475D01*
X1703304Y1204556D01*
X1705889Y1200998D01*
X1708998Y1197889D01*
X1712556Y1195304D01*
X1716475Y1193307D01*
X1720657Y1191948D01*
X1725001Y1191260D01*
X1729399D01*
X1733743Y1191948D01*
X1737925Y1193307D01*
X1741844Y1195304D01*
X1745402Y1197889D01*
X1748511Y1200998D01*
X1751096Y1204556D01*
X1753093Y1208475D01*
X1754452Y1212657D01*
X1755140Y1217001D01*
Y1221399D01*
X1754452Y1225743D01*
X1753093Y1229925D01*
X1751096Y1233844D01*
X1748511Y1237402D01*
X1745402Y1240511D01*
X1741844Y1243096D01*
X1737925Y1245093D01*
X1733743Y1246452D01*
X1729399Y1247140D01*
D02*
G37*
G36*
X306999D02*
X302601D01*
X298257Y1246452D01*
X294075Y1245093D01*
X290156Y1243096D01*
X286598Y1240511D01*
X283489Y1237402D01*
X280904Y1233844D01*
X278907Y1229925D01*
X277548Y1225743D01*
X276860Y1221399D01*
Y1217001D01*
X277548Y1212657D01*
X278907Y1208475D01*
X280904Y1204556D01*
X283489Y1200998D01*
X286598Y1197889D01*
X290156Y1195304D01*
X294075Y1193307D01*
X298257Y1191948D01*
X302601Y1191260D01*
X306999D01*
X311343Y1191948D01*
X315525Y1193307D01*
X319444Y1195304D01*
X323002Y1197889D01*
X326111Y1200998D01*
X328696Y1204556D01*
X330693Y1208475D01*
X332052Y1212657D01*
X332740Y1217001D01*
Y1221399D01*
X332052Y1225743D01*
X330693Y1229925D01*
X328696Y1233844D01*
X326111Y1237402D01*
X323002Y1240511D01*
X319444Y1243096D01*
X315525Y1245093D01*
X311343Y1246452D01*
X306999Y1247140D01*
D02*
G37*
G36*
X1217580Y1195070D02*
X1210310D01*
Y1187800D01*
X1217580D01*
Y1195070D01*
D02*
G37*
G36*
X1207770D02*
X1200500D01*
Y1187800D01*
X1207770D01*
Y1195070D01*
D02*
G37*
G36*
X980294Y1204880D02*
X978046D01*
X975874Y1204298D01*
X973926Y1203174D01*
X972336Y1201584D01*
X971212Y1199636D01*
X970630Y1197464D01*
Y1195216D01*
X971212Y1193044D01*
X972336Y1191096D01*
X973926Y1189506D01*
X975874Y1188382D01*
X978046Y1187800D01*
X980294D01*
X982466Y1188382D01*
X984414Y1189506D01*
X986004Y1191096D01*
X987128Y1193044D01*
X987710Y1195216D01*
Y1197464D01*
X987128Y1199636D01*
X986004Y1201584D01*
X984414Y1203174D01*
X982466Y1204298D01*
X980294Y1204880D01*
D02*
G37*
G36*
X1210164Y1184880D02*
X1207916D01*
X1205744Y1184298D01*
X1203796Y1183174D01*
X1202206Y1181584D01*
X1201082Y1179636D01*
X1200500Y1177464D01*
Y1175216D01*
X1201082Y1173044D01*
X1202206Y1171096D01*
X1203796Y1169506D01*
X1205744Y1168382D01*
X1207916Y1167800D01*
X1210164D01*
X1212336Y1168382D01*
X1214284Y1169506D01*
X1215874Y1171096D01*
X1216998Y1173044D01*
X1217580Y1175216D01*
Y1177464D01*
X1216998Y1179636D01*
X1215874Y1181584D01*
X1214284Y1183174D01*
X1212336Y1184298D01*
X1210164Y1184880D01*
D02*
G37*
G36*
X980294D02*
X978046D01*
X975874Y1184298D01*
X973926Y1183174D01*
X972336Y1181584D01*
X971212Y1179636D01*
X970630Y1177464D01*
Y1175216D01*
X971212Y1173044D01*
X972336Y1171096D01*
X973926Y1169506D01*
X975874Y1168382D01*
X978046Y1167800D01*
X980294D01*
X982466Y1168382D01*
X984414Y1169506D01*
X986004Y1171096D01*
X987128Y1173044D01*
X987710Y1175216D01*
Y1177464D01*
X987128Y1179636D01*
X986004Y1181584D01*
X984414Y1183174D01*
X982466Y1184298D01*
X980294Y1184880D01*
D02*
G37*
G36*
Y1164880D02*
X978046D01*
X975874Y1164298D01*
X973926Y1163174D01*
X972336Y1161584D01*
X971212Y1159636D01*
X970630Y1157464D01*
Y1155216D01*
X971212Y1153044D01*
X972336Y1151096D01*
X973926Y1149506D01*
X975874Y1148382D01*
X978046Y1147800D01*
X980294D01*
X982466Y1148382D01*
X984414Y1149506D01*
X986004Y1151096D01*
X987128Y1153044D01*
X987710Y1155216D01*
Y1157464D01*
X987128Y1159636D01*
X986004Y1161584D01*
X984414Y1163174D01*
X982466Y1164298D01*
X980294Y1164880D01*
D02*
G37*
G36*
X378660Y1233069D02*
X375676Y1232676D01*
X372896Y1231524D01*
X370508Y1229692D01*
X368676Y1227304D01*
X367524Y1224524D01*
X367131Y1221540D01*
Y1156313D01*
X367030Y1155935D01*
Y1152925D01*
X367809Y1150018D01*
X369314Y1147412D01*
X371442Y1145284D01*
X374048Y1143779D01*
X376955Y1143000D01*
X379965D01*
X382872Y1143779D01*
X384244Y1144571D01*
X384424Y1144646D01*
X384579Y1144764D01*
X385478Y1145284D01*
X386212Y1146018D01*
X386812Y1146478D01*
X387272Y1147078D01*
X387606Y1147412D01*
X387843Y1147821D01*
X388644Y1148866D01*
X389796Y1151646D01*
X390189Y1154630D01*
Y1221540D01*
X389796Y1224524D01*
X388644Y1227304D01*
X386812Y1229692D01*
X384424Y1231524D01*
X381644Y1232676D01*
X378660Y1233069D01*
D02*
G37*
G36*
X315590Y1156870D02*
X294010D01*
Y1135290D01*
X315590D01*
Y1156870D01*
D02*
G37*
G36*
X1210164Y1144880D02*
X1207916D01*
X1205744Y1144298D01*
X1203796Y1143174D01*
X1202206Y1141584D01*
X1201082Y1139636D01*
X1200500Y1137464D01*
Y1135216D01*
X1201082Y1133044D01*
X1202206Y1131096D01*
X1203796Y1129506D01*
X1205744Y1128382D01*
X1207916Y1127800D01*
X1210164D01*
X1212336Y1128382D01*
X1214284Y1129506D01*
X1215874Y1131096D01*
X1216998Y1133044D01*
X1217580Y1135216D01*
Y1137464D01*
X1216998Y1139636D01*
X1215874Y1141584D01*
X1214284Y1143174D01*
X1212336Y1144298D01*
X1210164Y1144880D01*
D02*
G37*
G36*
X980294D02*
X978046D01*
X975874Y1144298D01*
X973926Y1143174D01*
X972336Y1141584D01*
X971212Y1139636D01*
X970630Y1137464D01*
Y1135216D01*
X971212Y1133044D01*
X972336Y1131096D01*
X973926Y1129506D01*
X975874Y1128382D01*
X978046Y1127800D01*
X980294D01*
X982466Y1128382D01*
X984414Y1129506D01*
X986004Y1131096D01*
X987128Y1133044D01*
X987710Y1135216D01*
Y1137464D01*
X987128Y1139636D01*
X986004Y1141584D01*
X984414Y1143174D01*
X982466Y1144298D01*
X980294Y1144880D01*
D02*
G37*
G36*
X706020Y1231260D02*
X684440D01*
Y1209680D01*
X688756D01*
Y1174162D01*
X639938Y1125344D01*
X581802D01*
X577850Y1129296D01*
Y1130200D01*
X577244Y1132461D01*
X576074Y1134489D01*
X574419Y1136144D01*
X572391Y1137314D01*
X570130Y1137920D01*
X567790D01*
X565529Y1137314D01*
X564594Y1136774D01*
X454629D01*
X452151Y1136282D01*
X450051Y1134878D01*
X443196Y1128023D01*
X442291D01*
X440030Y1127417D01*
X438003Y1126247D01*
X436348Y1124591D01*
X435178Y1122564D01*
X434572Y1120303D01*
Y1117962D01*
X435178Y1115701D01*
X435602Y1114967D01*
Y987767D01*
X435231Y987554D01*
X433576Y985899D01*
X432406Y983871D01*
X431800Y981610D01*
Y979270D01*
X432406Y977009D01*
X433576Y974981D01*
X435231Y973326D01*
X437259Y972156D01*
X439520Y971550D01*
X441860D01*
X444121Y972156D01*
X446149Y973326D01*
X447804Y974981D01*
X448974Y977009D01*
X449580Y979270D01*
Y981610D01*
X448974Y983871D01*
X448550Y984606D01*
Y1111805D01*
X448920Y1112019D01*
X450575Y1113674D01*
X451746Y1115701D01*
X452352Y1117962D01*
Y1118867D01*
X457311Y1123826D01*
X561699D01*
X561846Y1123571D01*
X563501Y1121916D01*
X565529Y1120746D01*
X567790Y1120140D01*
X568694D01*
X574542Y1114292D01*
X576642Y1112888D01*
X579120Y1112396D01*
X583387D01*
X583640Y1111126D01*
X583516Y1111074D01*
X581128Y1109242D01*
X474448Y1002562D01*
X473988Y1001963D01*
X473454Y1001428D01*
X473076Y1000774D01*
X472616Y1000174D01*
X472327Y999476D01*
X471949Y998822D01*
X471753Y998092D01*
X471464Y997394D01*
X471366Y996645D01*
X471170Y995915D01*
Y995159D01*
X471071Y994410D01*
X471170Y993661D01*
Y992905D01*
X471366Y992175D01*
X471464Y991426D01*
X471753Y990728D01*
X471949Y989998D01*
X472327Y989344D01*
X472616Y988646D01*
X473076Y988046D01*
X473454Y987392D01*
X473988Y986858D01*
X474448Y986258D01*
X475047Y985798D01*
X475582Y985264D01*
X476236Y984886D01*
X476836Y984426D01*
X477534Y984137D01*
X478188Y983759D01*
X478918Y983563D01*
X479616Y983274D01*
X480365Y983176D01*
X481095Y982980D01*
X481851D01*
X482600Y982881D01*
X483349Y982980D01*
X484105D01*
X484835Y983176D01*
X485584Y983274D01*
X486282Y983563D01*
X487012Y983759D01*
X487666Y984137D01*
X488364Y984426D01*
X488964Y984886D01*
X489618Y985264D01*
X490153Y985798D01*
X490752Y986258D01*
X594055Y1089561D01*
X596900D01*
X597649Y1089660D01*
X598405D01*
X599135Y1089856D01*
X599884Y1089954D01*
X600582Y1090243D01*
X601312Y1090439D01*
X601966Y1090817D01*
X602664Y1091106D01*
X603264Y1091566D01*
X603918Y1091944D01*
X604452Y1092478D01*
X605052Y1092938D01*
X605512Y1093538D01*
X606046Y1094072D01*
X606424Y1094726D01*
X606884Y1095326D01*
X607173Y1096024D01*
X607551Y1096678D01*
X607747Y1097408D01*
X608036Y1098106D01*
X608134Y1098855D01*
X608330Y1099585D01*
Y1100341D01*
X608429Y1101090D01*
X608330Y1101839D01*
Y1102595D01*
X608134Y1103325D01*
X608036Y1104074D01*
X607984Y1104198D01*
X609061Y1104918D01*
X696483Y1017496D01*
Y995033D01*
X696976Y992555D01*
X698379Y990455D01*
X797072Y891762D01*
X799172Y890358D01*
X801650Y889866D01*
X973567D01*
X973926Y889506D01*
X975874Y888382D01*
X978046Y887800D01*
X980294D01*
X982466Y888382D01*
X984414Y889506D01*
X986004Y891096D01*
X987128Y893044D01*
X987710Y895216D01*
Y897464D01*
X987128Y899636D01*
X986004Y901584D01*
X984414Y903174D01*
X982466Y904298D01*
X980294Y904880D01*
X978046D01*
X975874Y904298D01*
X973926Y903174D01*
X973567Y902814D01*
X804332D01*
X709432Y997714D01*
Y1020177D01*
X708939Y1022655D01*
X707535Y1024755D01*
X621069Y1111222D01*
X621555Y1112396D01*
X642620D01*
X645098Y1112888D01*
X647198Y1114292D01*
X699808Y1166902D01*
X701212Y1169002D01*
X701704Y1171480D01*
Y1209680D01*
X706020D01*
Y1231260D01*
D02*
G37*
G36*
X306220Y1131870D02*
X306070D01*
Y1122350D01*
X315590D01*
Y1122501D01*
X314855Y1125245D01*
X313434Y1127705D01*
X311425Y1129714D01*
X308965Y1131135D01*
X306220Y1131870D01*
D02*
G37*
G36*
X303530D02*
X303379D01*
X300635Y1131135D01*
X298175Y1129714D01*
X296166Y1127705D01*
X294745Y1125245D01*
X294010Y1122501D01*
Y1122350D01*
X303530D01*
Y1131870D01*
D02*
G37*
G36*
X315590Y1119810D02*
X306070D01*
Y1110290D01*
X306220D01*
X308965Y1111025D01*
X311425Y1112446D01*
X313434Y1114455D01*
X314855Y1116915D01*
X315590Y1119660D01*
Y1119810D01*
D02*
G37*
G36*
X303530D02*
X294010D01*
Y1119660D01*
X294745Y1116915D01*
X296166Y1114455D01*
X298175Y1112446D01*
X300635Y1111025D01*
X303379Y1110290D01*
X303530D01*
Y1119810D01*
D02*
G37*
G36*
X1210164Y1124880D02*
X1207916D01*
X1205744Y1124298D01*
X1203796Y1123174D01*
X1202206Y1121584D01*
X1201082Y1119636D01*
X1200500Y1117464D01*
Y1115216D01*
X1201082Y1113044D01*
X1202206Y1111096D01*
X1203796Y1109506D01*
X1205744Y1108382D01*
X1207916Y1107800D01*
X1210164D01*
X1212336Y1108382D01*
X1214284Y1109506D01*
X1215874Y1111096D01*
X1216998Y1113044D01*
X1217580Y1115216D01*
Y1117464D01*
X1216998Y1119636D01*
X1215874Y1121584D01*
X1214284Y1123174D01*
X1212336Y1124298D01*
X1210164Y1124880D01*
D02*
G37*
G36*
X980294D02*
X978046D01*
X975874Y1124298D01*
X973926Y1123174D01*
X972336Y1121584D01*
X971212Y1119636D01*
X970630Y1117464D01*
Y1115216D01*
X971212Y1113044D01*
X972336Y1111096D01*
X973926Y1109506D01*
X975874Y1108382D01*
X978046Y1107800D01*
X980294D01*
X982466Y1108382D01*
X984414Y1109506D01*
X986004Y1111096D01*
X987128Y1113044D01*
X987710Y1115216D01*
Y1117464D01*
X987128Y1119636D01*
X986004Y1121584D01*
X984414Y1123174D01*
X982466Y1124298D01*
X980294Y1124880D01*
D02*
G37*
G36*
X1210164Y1104880D02*
X1207916D01*
X1205744Y1104298D01*
X1203796Y1103174D01*
X1202206Y1101584D01*
X1201082Y1099636D01*
X1200500Y1097464D01*
Y1095216D01*
X1201082Y1093044D01*
X1202206Y1091096D01*
X1203796Y1089506D01*
X1205744Y1088382D01*
X1207916Y1087800D01*
X1210164D01*
X1212336Y1088382D01*
X1214284Y1089506D01*
X1215874Y1091096D01*
X1216998Y1093044D01*
X1217580Y1095216D01*
Y1097464D01*
X1216998Y1099636D01*
X1215874Y1101584D01*
X1214284Y1103174D01*
X1212336Y1104298D01*
X1210164Y1104880D01*
D02*
G37*
G36*
X980294D02*
X978046D01*
X975874Y1104298D01*
X973926Y1103174D01*
X972336Y1101584D01*
X971212Y1099636D01*
X970630Y1097464D01*
Y1095216D01*
X971212Y1093044D01*
X972336Y1091096D01*
X973926Y1089506D01*
X975874Y1088382D01*
X978046Y1087800D01*
X980294D01*
X982466Y1088382D01*
X984414Y1089506D01*
X986004Y1091096D01*
X987128Y1093044D01*
X987710Y1095216D01*
Y1097464D01*
X987128Y1099636D01*
X986004Y1101584D01*
X984414Y1103174D01*
X982466Y1104298D01*
X980294Y1104880D01*
D02*
G37*
G36*
X306220Y1106870D02*
X303379D01*
X300635Y1106135D01*
X298175Y1104714D01*
X296166Y1102705D01*
X294745Y1100245D01*
X294010Y1097501D01*
Y1094660D01*
X294745Y1091915D01*
X296166Y1089455D01*
X298175Y1087446D01*
X300635Y1086025D01*
X303379Y1085290D01*
X306220D01*
X308965Y1086025D01*
X311425Y1087446D01*
X313434Y1089455D01*
X314855Y1091915D01*
X315590Y1094660D01*
Y1097501D01*
X314855Y1100245D01*
X313434Y1102705D01*
X311425Y1104714D01*
X308965Y1106135D01*
X306220Y1106870D01*
D02*
G37*
G36*
X1210164Y1084880D02*
X1207916D01*
X1205744Y1084298D01*
X1203796Y1083174D01*
X1202206Y1081584D01*
X1201082Y1079636D01*
X1200500Y1077464D01*
Y1075216D01*
X1201082Y1073044D01*
X1202206Y1071096D01*
X1203796Y1069506D01*
X1205744Y1068382D01*
X1207916Y1067800D01*
X1210164D01*
X1212336Y1068382D01*
X1214284Y1069506D01*
X1215874Y1071096D01*
X1216998Y1073044D01*
X1217580Y1075216D01*
Y1077464D01*
X1216998Y1079636D01*
X1215874Y1081584D01*
X1214284Y1083174D01*
X1212336Y1084298D01*
X1210164Y1084880D01*
D02*
G37*
G36*
X980294D02*
X978046D01*
X975874Y1084298D01*
X973926Y1083174D01*
X972336Y1081584D01*
X971212Y1079636D01*
X970630Y1077464D01*
Y1075216D01*
X971212Y1073044D01*
X972336Y1071096D01*
X973926Y1069506D01*
X975874Y1068382D01*
X978046Y1067800D01*
X980294D01*
X982466Y1068382D01*
X984414Y1069506D01*
X986004Y1071096D01*
X987128Y1073044D01*
X987710Y1075216D01*
Y1077464D01*
X987128Y1079636D01*
X986004Y1081584D01*
X984414Y1083174D01*
X982466Y1084298D01*
X980294Y1084880D01*
D02*
G37*
G36*
X306220Y1081870D02*
X303379D01*
X300635Y1081135D01*
X298175Y1079714D01*
X296166Y1077705D01*
X294745Y1075245D01*
X294010Y1072501D01*
Y1069660D01*
X294745Y1066915D01*
X296166Y1064455D01*
X298175Y1062446D01*
X300635Y1061025D01*
X303379Y1060290D01*
X306220D01*
X308965Y1061025D01*
X311425Y1062446D01*
X313434Y1064455D01*
X314855Y1066915D01*
X315590Y1069660D01*
Y1072501D01*
X314855Y1075245D01*
X313434Y1077705D01*
X311425Y1079714D01*
X308965Y1081135D01*
X306220Y1081870D01*
D02*
G37*
G36*
X1210164Y1064880D02*
X1207916D01*
X1205744Y1064298D01*
X1203796Y1063174D01*
X1203437Y1062814D01*
X1163020D01*
X1160542Y1062322D01*
X1158442Y1060918D01*
X1141330Y1043806D01*
X1139569Y1043334D01*
X1137541Y1042164D01*
X1135886Y1040509D01*
X1134716Y1038481D01*
X1134110Y1036220D01*
Y1033880D01*
X1134716Y1031619D01*
X1135886Y1029591D01*
X1137541Y1027936D01*
X1139569Y1026766D01*
X1141830Y1026160D01*
X1144170D01*
X1146431Y1026766D01*
X1148459Y1027936D01*
X1150114Y1029591D01*
X1151284Y1031619D01*
X1151890Y1033880D01*
Y1036054D01*
X1165702Y1049866D01*
X1203437D01*
X1203796Y1049506D01*
X1205744Y1048382D01*
X1207916Y1047800D01*
X1210164D01*
X1212336Y1048382D01*
X1214284Y1049506D01*
X1215874Y1051096D01*
X1216998Y1053044D01*
X1217580Y1055216D01*
Y1057464D01*
X1216998Y1059636D01*
X1215874Y1061584D01*
X1214284Y1063174D01*
X1212336Y1064298D01*
X1210164Y1064880D01*
D02*
G37*
G36*
X980294D02*
X978046D01*
X975874Y1064298D01*
X973926Y1063174D01*
X972336Y1061584D01*
X971212Y1059636D01*
X970630Y1057464D01*
Y1055216D01*
X971212Y1053044D01*
X972336Y1051096D01*
X973926Y1049506D01*
X975874Y1048382D01*
X978046Y1047800D01*
X980294D01*
X982466Y1048382D01*
X984414Y1049506D01*
X986004Y1051096D01*
X987128Y1053044D01*
X987710Y1055216D01*
Y1057464D01*
X987128Y1059636D01*
X986004Y1061584D01*
X984414Y1063174D01*
X982466Y1064298D01*
X980294Y1064880D01*
D02*
G37*
G36*
X1610520Y1062425D02*
X1607660D01*
X1604896Y1061685D01*
X1602419Y1060254D01*
X1600396Y1058231D01*
X1598965Y1055754D01*
X1598225Y1052990D01*
Y1050130D01*
X1598965Y1047366D01*
X1600396Y1044889D01*
X1602419Y1042866D01*
X1604896Y1041435D01*
X1607660Y1040695D01*
X1610520D01*
X1613284Y1041435D01*
X1615761Y1042866D01*
X1617784Y1044889D01*
X1619215Y1047366D01*
X1619955Y1050130D01*
Y1052990D01*
X1619215Y1055754D01*
X1617784Y1058231D01*
X1615761Y1060254D01*
X1613284Y1061685D01*
X1610520Y1062425D01*
D02*
G37*
G36*
X306220Y1056870D02*
X303379D01*
X300635Y1056135D01*
X298175Y1054714D01*
X296166Y1052705D01*
X294745Y1050245D01*
X294010Y1047501D01*
Y1044660D01*
X294745Y1041915D01*
X296166Y1039455D01*
X298175Y1037446D01*
X300635Y1036025D01*
X303379Y1035290D01*
X306220D01*
X308965Y1036025D01*
X311425Y1037446D01*
X313434Y1039455D01*
X314855Y1041915D01*
X315590Y1044660D01*
Y1047501D01*
X314855Y1050245D01*
X313434Y1052705D01*
X311425Y1054714D01*
X308965Y1056135D01*
X306220Y1056870D01*
D02*
G37*
G36*
X1210164Y1044880D02*
X1207916D01*
X1205744Y1044298D01*
X1203796Y1043174D01*
X1203437Y1042814D01*
X1177310D01*
X1174832Y1042322D01*
X1172732Y1040918D01*
X1120642Y988828D01*
X1119238Y986728D01*
X1118746Y984250D01*
Y961138D01*
X1118106Y960499D01*
X1116936Y958471D01*
X1116330Y956210D01*
Y953870D01*
X1116936Y951609D01*
X1118106Y949581D01*
X1119761Y947926D01*
X1121789Y946756D01*
X1124050Y946150D01*
X1126390D01*
X1128651Y946756D01*
X1130679Y947926D01*
X1132334Y949581D01*
X1133504Y951609D01*
X1134110Y953870D01*
Y956210D01*
X1133504Y958471D01*
X1132334Y960499D01*
X1131694Y961138D01*
Y981568D01*
X1179992Y1029866D01*
X1203437D01*
X1203796Y1029506D01*
X1205744Y1028382D01*
X1207916Y1027800D01*
X1210164D01*
X1212336Y1028382D01*
X1214284Y1029506D01*
X1215874Y1031096D01*
X1216998Y1033044D01*
X1217580Y1035216D01*
Y1037464D01*
X1216998Y1039636D01*
X1215874Y1041584D01*
X1214284Y1043174D01*
X1212336Y1044298D01*
X1210164Y1044880D01*
D02*
G37*
G36*
X980294D02*
X978046D01*
X975874Y1044298D01*
X973926Y1043174D01*
X972336Y1041584D01*
X971212Y1039636D01*
X970630Y1037464D01*
Y1035216D01*
X971212Y1033044D01*
X972336Y1031096D01*
X973926Y1029506D01*
X975874Y1028382D01*
X978046Y1027800D01*
X980294D01*
X982466Y1028382D01*
X984414Y1029506D01*
X986004Y1031096D01*
X987128Y1033044D01*
X987710Y1035216D01*
Y1037464D01*
X987128Y1039636D01*
X986004Y1041584D01*
X984414Y1043174D01*
X982466Y1044298D01*
X980294Y1044880D01*
D02*
G37*
G36*
X1610520Y1037025D02*
X1607660D01*
X1604896Y1036285D01*
X1602419Y1034854D01*
X1600396Y1032831D01*
X1598965Y1030354D01*
X1598225Y1027590D01*
Y1024730D01*
X1598965Y1021966D01*
X1600396Y1019489D01*
X1602419Y1017466D01*
X1604896Y1016035D01*
X1607660Y1015295D01*
X1610520D01*
X1613284Y1016035D01*
X1615761Y1017466D01*
X1617784Y1019489D01*
X1619215Y1021966D01*
X1619955Y1024730D01*
Y1027590D01*
X1619215Y1030354D01*
X1617784Y1032831D01*
X1615761Y1034854D01*
X1613284Y1036285D01*
X1610520Y1037025D01*
D02*
G37*
G36*
X306220Y1031870D02*
X303379D01*
X300635Y1031135D01*
X298175Y1029714D01*
X296166Y1027705D01*
X294745Y1025245D01*
X294010Y1022501D01*
Y1019660D01*
X294745Y1016915D01*
X296166Y1014455D01*
X298175Y1012446D01*
X300635Y1011025D01*
X303379Y1010290D01*
X306220D01*
X308965Y1011025D01*
X311425Y1012446D01*
X313434Y1014455D01*
X314855Y1016915D01*
X315590Y1019660D01*
Y1022501D01*
X314855Y1025245D01*
X313434Y1027705D01*
X311425Y1029714D01*
X308965Y1031135D01*
X306220Y1031870D01*
D02*
G37*
G36*
X394970Y1115159D02*
X394221Y1115060D01*
X393465D01*
X392735Y1114864D01*
X391986Y1114766D01*
X391288Y1114477D01*
X390558Y1114281D01*
X389904Y1113903D01*
X389206Y1113614D01*
X388606Y1113154D01*
X387952Y1112776D01*
X387418Y1112242D01*
X386818Y1111782D01*
X386358Y1111182D01*
X385824Y1110648D01*
X385446Y1109994D01*
X384986Y1109394D01*
X384697Y1108696D01*
X384319Y1108042D01*
X384123Y1107312D01*
X383834Y1106614D01*
X383736Y1105865D01*
X383540Y1105135D01*
Y1104379D01*
X383441Y1103630D01*
Y1021080D01*
X383834Y1018096D01*
X384986Y1015316D01*
X386818Y1012928D01*
X389206Y1011096D01*
X391986Y1009944D01*
X394970Y1009551D01*
X397954Y1009944D01*
X400734Y1011096D01*
X403122Y1012928D01*
X404954Y1015316D01*
X406106Y1018096D01*
X406499Y1021080D01*
Y1103630D01*
X406400Y1104379D01*
Y1105135D01*
X406204Y1105865D01*
X406106Y1106614D01*
X405817Y1107312D01*
X405621Y1108042D01*
X405243Y1108696D01*
X404954Y1109394D01*
X404494Y1109994D01*
X404116Y1110648D01*
X403582Y1111182D01*
X403122Y1111782D01*
X402522Y1112242D01*
X401988Y1112776D01*
X401334Y1113154D01*
X400734Y1113614D01*
X400036Y1113903D01*
X399382Y1114281D01*
X398652Y1114477D01*
X397954Y1114766D01*
X397205Y1114864D01*
X396475Y1115060D01*
X395719D01*
X394970Y1115159D01*
D02*
G37*
G36*
X1210164Y1024880D02*
X1207916D01*
X1205744Y1024298D01*
X1203796Y1023174D01*
X1202206Y1021584D01*
X1201082Y1019636D01*
X1200500Y1017464D01*
Y1015216D01*
X1201082Y1013044D01*
X1202206Y1011096D01*
X1203796Y1009506D01*
X1205744Y1008382D01*
X1207916Y1007800D01*
X1210164D01*
X1212336Y1008382D01*
X1214284Y1009506D01*
X1215874Y1011096D01*
X1216998Y1013044D01*
X1217580Y1015216D01*
Y1017464D01*
X1216998Y1019636D01*
X1215874Y1021584D01*
X1214284Y1023174D01*
X1212336Y1024298D01*
X1210164Y1024880D01*
D02*
G37*
G36*
X980294D02*
X978046D01*
X975874Y1024298D01*
X973926Y1023174D01*
X972336Y1021584D01*
X971212Y1019636D01*
X970630Y1017464D01*
Y1015216D01*
X971212Y1013044D01*
X972336Y1011096D01*
X973926Y1009506D01*
X975874Y1008382D01*
X978046Y1007800D01*
X980294D01*
X982466Y1008382D01*
X984414Y1009506D01*
X986004Y1011096D01*
X987128Y1013044D01*
X987710Y1015216D01*
Y1017464D01*
X987128Y1019636D01*
X986004Y1021584D01*
X984414Y1023174D01*
X982466Y1024298D01*
X980294Y1024880D01*
D02*
G37*
G36*
X1610520Y1011625D02*
X1607660D01*
X1604896Y1010885D01*
X1602419Y1009454D01*
X1600396Y1007431D01*
X1598965Y1004954D01*
X1598225Y1002190D01*
Y999330D01*
X1598965Y996566D01*
X1600396Y994089D01*
X1602419Y992066D01*
X1604896Y990635D01*
X1607660Y989895D01*
X1610520D01*
X1613284Y990635D01*
X1615761Y992066D01*
X1617784Y994089D01*
X1619215Y996566D01*
X1619955Y999330D01*
Y1002190D01*
X1619215Y1004954D01*
X1617784Y1007431D01*
X1615761Y1009454D01*
X1613284Y1010885D01*
X1610520Y1011625D01*
D02*
G37*
G36*
X1210164Y1004880D02*
X1207916D01*
X1205744Y1004298D01*
X1203796Y1003174D01*
X1202206Y1001584D01*
X1201082Y999636D01*
X1200500Y997464D01*
Y995216D01*
X1201082Y993044D01*
X1202206Y991096D01*
X1203796Y989506D01*
X1205744Y988382D01*
X1207916Y987800D01*
X1210164D01*
X1212336Y988382D01*
X1214284Y989506D01*
X1215874Y991096D01*
X1216998Y993044D01*
X1217580Y995216D01*
Y997464D01*
X1216998Y999636D01*
X1215874Y1001584D01*
X1214284Y1003174D01*
X1212336Y1004298D01*
X1210164Y1004880D01*
D02*
G37*
G36*
X980294D02*
X978046D01*
X975874Y1004298D01*
X973926Y1003174D01*
X972336Y1001584D01*
X971212Y999636D01*
X970630Y997464D01*
Y995216D01*
X971212Y993044D01*
X972336Y991096D01*
X973926Y989506D01*
X975874Y988382D01*
X978046Y987800D01*
X980294D01*
X982466Y988382D01*
X984414Y989506D01*
X986004Y991096D01*
X987128Y993044D01*
X987710Y995216D01*
Y997464D01*
X987128Y999636D01*
X986004Y1001584D01*
X984414Y1003174D01*
X982466Y1004298D01*
X980294Y1004880D01*
D02*
G37*
G36*
X1210164Y984880D02*
X1207916D01*
X1205744Y984298D01*
X1203796Y983174D01*
X1202206Y981584D01*
X1201082Y979636D01*
X1200500Y977464D01*
Y975216D01*
X1201082Y973044D01*
X1202206Y971096D01*
X1203796Y969506D01*
X1205744Y968382D01*
X1207916Y967800D01*
X1210164D01*
X1212336Y968382D01*
X1214284Y969506D01*
X1215874Y971096D01*
X1216998Y973044D01*
X1217580Y975216D01*
Y977464D01*
X1216998Y979636D01*
X1215874Y981584D01*
X1214284Y983174D01*
X1212336Y984298D01*
X1210164Y984880D01*
D02*
G37*
G36*
X980294D02*
X978046D01*
X975874Y984298D01*
X973926Y983174D01*
X972336Y981584D01*
X971212Y979636D01*
X970630Y977464D01*
Y975216D01*
X971212Y973044D01*
X972336Y971096D01*
X973926Y969506D01*
X975874Y968382D01*
X978046Y967800D01*
X980294D01*
X982466Y968382D01*
X984414Y969506D01*
X986004Y971096D01*
X987128Y973044D01*
X987710Y975216D01*
Y977464D01*
X987128Y979636D01*
X986004Y981584D01*
X984414Y983174D01*
X982466Y984298D01*
X980294Y984880D01*
D02*
G37*
G36*
X1610520Y986225D02*
X1607660D01*
X1604896Y985485D01*
X1602419Y984054D01*
X1600396Y982031D01*
X1598965Y979554D01*
X1598225Y976790D01*
Y973930D01*
X1598965Y971166D01*
X1600396Y968689D01*
X1602419Y966666D01*
X1604896Y965235D01*
X1607660Y964495D01*
X1610520D01*
X1613284Y965235D01*
X1615761Y966666D01*
X1617784Y968689D01*
X1619215Y971166D01*
X1619955Y973930D01*
Y976790D01*
X1619215Y979554D01*
X1617784Y982031D01*
X1615761Y984054D01*
X1613284Y985485D01*
X1610520Y986225D01*
D02*
G37*
G36*
X1210164Y964880D02*
X1207916D01*
X1205744Y964298D01*
X1203796Y963174D01*
X1202206Y961584D01*
X1201082Y959636D01*
X1200500Y957464D01*
Y955216D01*
X1201082Y953044D01*
X1202206Y951096D01*
X1203796Y949506D01*
X1205744Y948382D01*
X1207916Y947800D01*
X1210164D01*
X1212336Y948382D01*
X1214284Y949506D01*
X1215874Y951096D01*
X1216998Y953044D01*
X1217580Y955216D01*
Y957464D01*
X1216998Y959636D01*
X1215874Y961584D01*
X1214284Y963174D01*
X1212336Y964298D01*
X1210164Y964880D01*
D02*
G37*
G36*
X980294D02*
X978046D01*
X975874Y964298D01*
X973926Y963174D01*
X972336Y961584D01*
X971212Y959636D01*
X970630Y957464D01*
Y955216D01*
X971212Y953044D01*
X972336Y951096D01*
X973926Y949506D01*
X975874Y948382D01*
X978046Y947800D01*
X980294D01*
X982466Y948382D01*
X984414Y949506D01*
X986004Y951096D01*
X987128Y953044D01*
X987710Y955216D01*
Y957464D01*
X987128Y959636D01*
X986004Y961584D01*
X984414Y963174D01*
X982466Y964298D01*
X980294Y964880D01*
D02*
G37*
G36*
X315590Y966770D02*
X294010D01*
Y945190D01*
X315590D01*
Y966770D01*
D02*
G37*
G36*
X1610520Y960825D02*
X1607660D01*
X1604896Y960085D01*
X1602419Y958654D01*
X1600396Y956631D01*
X1598965Y954154D01*
X1598225Y951390D01*
Y948530D01*
X1598965Y945766D01*
X1600396Y943289D01*
X1602419Y941266D01*
X1604896Y939835D01*
X1607660Y939095D01*
X1610520D01*
X1613284Y939835D01*
X1615761Y941266D01*
X1617784Y943289D01*
X1619215Y945766D01*
X1619955Y948530D01*
Y951390D01*
X1619215Y954154D01*
X1617784Y956631D01*
X1615761Y958654D01*
X1613284Y960085D01*
X1610520Y960825D01*
D02*
G37*
G36*
X306220Y941770D02*
X306070D01*
Y932250D01*
X315590D01*
Y932401D01*
X314855Y935145D01*
X313434Y937605D01*
X311425Y939614D01*
X308965Y941035D01*
X306220Y941770D01*
D02*
G37*
G36*
X303530D02*
X303379D01*
X300635Y941035D01*
X298175Y939614D01*
X296166Y937605D01*
X294745Y935145D01*
X294010Y932401D01*
Y932250D01*
X303530D01*
Y941770D01*
D02*
G37*
G36*
X1210164Y944880D02*
X1207916D01*
X1205744Y944298D01*
X1203796Y943174D01*
X1202206Y941584D01*
X1201082Y939636D01*
X1200500Y937464D01*
Y935216D01*
X1201082Y933044D01*
X1202206Y931096D01*
X1203796Y929506D01*
X1205744Y928382D01*
X1207916Y927800D01*
X1210164D01*
X1212336Y928382D01*
X1214284Y929506D01*
X1215874Y931096D01*
X1216998Y933044D01*
X1217580Y935216D01*
Y937464D01*
X1216998Y939636D01*
X1215874Y941584D01*
X1214284Y943174D01*
X1212336Y944298D01*
X1210164Y944880D01*
D02*
G37*
G36*
X980294D02*
X978046D01*
X975874Y944298D01*
X973926Y943174D01*
X972336Y941584D01*
X971212Y939636D01*
X970630Y937464D01*
Y935216D01*
X971212Y933044D01*
X972336Y931096D01*
X973926Y929506D01*
X975874Y928382D01*
X978046Y927800D01*
X980294D01*
X982466Y928382D01*
X984414Y929506D01*
X986004Y931096D01*
X987128Y933044D01*
X987710Y935216D01*
Y937464D01*
X987128Y939636D01*
X986004Y941584D01*
X984414Y943174D01*
X982466Y944298D01*
X980294Y944880D01*
D02*
G37*
G36*
X315590Y929710D02*
X306070D01*
Y920190D01*
X306220D01*
X308965Y920925D01*
X311425Y922346D01*
X313434Y924355D01*
X314855Y926815D01*
X315590Y929559D01*
Y929710D01*
D02*
G37*
G36*
X303530D02*
X294010D01*
Y929559D01*
X294745Y926815D01*
X296166Y924355D01*
X298175Y922346D01*
X300635Y920925D01*
X303379Y920190D01*
X303530D01*
Y929710D01*
D02*
G37*
G36*
X1610520Y935425D02*
X1607660D01*
X1604896Y934685D01*
X1602419Y933254D01*
X1600396Y931231D01*
X1598965Y928754D01*
X1598225Y925990D01*
Y923130D01*
X1598965Y920366D01*
X1600396Y917889D01*
X1602419Y915866D01*
X1604896Y914435D01*
X1607660Y913695D01*
X1610520D01*
X1613284Y914435D01*
X1615761Y915866D01*
X1617784Y917889D01*
X1619215Y920366D01*
X1619955Y923130D01*
Y925990D01*
X1619215Y928754D01*
X1617784Y931231D01*
X1615761Y933254D01*
X1613284Y934685D01*
X1610520Y935425D01*
D02*
G37*
G36*
X1210164Y924880D02*
X1207916D01*
X1205744Y924298D01*
X1203796Y923174D01*
X1202206Y921584D01*
X1201082Y919636D01*
X1200500Y917464D01*
Y915216D01*
X1201082Y913044D01*
X1202206Y911096D01*
X1203796Y909506D01*
X1205744Y908382D01*
X1207916Y907800D01*
X1210164D01*
X1212336Y908382D01*
X1214284Y909506D01*
X1215874Y911096D01*
X1216998Y913044D01*
X1217580Y915216D01*
Y917464D01*
X1216998Y919636D01*
X1215874Y921584D01*
X1214284Y923174D01*
X1212336Y924298D01*
X1210164Y924880D01*
D02*
G37*
G36*
X980294D02*
X978046D01*
X975874Y924298D01*
X973926Y923174D01*
X972336Y921584D01*
X971212Y919636D01*
X970630Y917464D01*
Y915216D01*
X971212Y913044D01*
X972336Y911096D01*
X973926Y909506D01*
X975874Y908382D01*
X978046Y907800D01*
X980294D01*
X982466Y908382D01*
X984414Y909506D01*
X986004Y911096D01*
X987128Y913044D01*
X987710Y915216D01*
Y917464D01*
X987128Y919636D01*
X986004Y921584D01*
X984414Y923174D01*
X982466Y924298D01*
X980294Y924880D01*
D02*
G37*
G36*
X306220Y916770D02*
X303379D01*
X300635Y916035D01*
X298175Y914614D01*
X296166Y912605D01*
X294745Y910145D01*
X294010Y907401D01*
Y904559D01*
X294745Y901815D01*
X296166Y899355D01*
X298175Y897346D01*
X300635Y895925D01*
X303379Y895190D01*
X306220D01*
X308965Y895925D01*
X311425Y897346D01*
X313434Y899355D01*
X314855Y901815D01*
X315590Y904559D01*
Y907401D01*
X314855Y910145D01*
X313434Y912605D01*
X311425Y914614D01*
X308965Y916035D01*
X306220Y916770D01*
D02*
G37*
G36*
X1610520Y910025D02*
X1607660D01*
X1604896Y909285D01*
X1602419Y907854D01*
X1600396Y905831D01*
X1598965Y903354D01*
X1598225Y900590D01*
Y897730D01*
X1598965Y894966D01*
X1600396Y892489D01*
X1602419Y890466D01*
X1604896Y889035D01*
X1607660Y888295D01*
X1610520D01*
X1613284Y889035D01*
X1615761Y890466D01*
X1617784Y892489D01*
X1619215Y894966D01*
X1619955Y897730D01*
Y900590D01*
X1619215Y903354D01*
X1617784Y905831D01*
X1615761Y907854D01*
X1613284Y909285D01*
X1610520Y910025D01*
D02*
G37*
G36*
X1210164Y904880D02*
X1207916D01*
X1205744Y904298D01*
X1203796Y903174D01*
X1202206Y901584D01*
X1201082Y899636D01*
X1200500Y897464D01*
Y895216D01*
X1201082Y893044D01*
X1202206Y891096D01*
X1203796Y889506D01*
X1205744Y888382D01*
X1207916Y887800D01*
X1210164D01*
X1212336Y888382D01*
X1214284Y889506D01*
X1215874Y891096D01*
X1216998Y893044D01*
X1217580Y895216D01*
Y897464D01*
X1216998Y899636D01*
X1215874Y901584D01*
X1214284Y903174D01*
X1212336Y904298D01*
X1210164Y904880D01*
D02*
G37*
G36*
X306220Y891770D02*
X303379D01*
X300635Y891035D01*
X298175Y889614D01*
X296166Y887605D01*
X294745Y885145D01*
X294010Y882401D01*
Y879559D01*
X294745Y876815D01*
X296166Y874355D01*
X298175Y872346D01*
X300635Y870925D01*
X303379Y870190D01*
X306220D01*
X308965Y870925D01*
X311425Y872346D01*
X313434Y874355D01*
X314855Y876815D01*
X315590Y879559D01*
Y882401D01*
X314855Y885145D01*
X313434Y887605D01*
X311425Y889614D01*
X308965Y891035D01*
X306220Y891770D01*
D02*
G37*
G36*
X1210164Y884880D02*
X1207916D01*
X1205744Y884298D01*
X1203796Y883174D01*
X1202206Y881584D01*
X1201082Y879636D01*
X1200500Y877464D01*
Y875216D01*
X1201082Y873044D01*
X1202206Y871096D01*
X1203796Y869506D01*
X1205744Y868382D01*
X1207916Y867800D01*
X1210164D01*
X1212336Y868382D01*
X1214284Y869506D01*
X1215874Y871096D01*
X1216998Y873044D01*
X1217580Y875216D01*
Y877464D01*
X1216998Y879636D01*
X1215874Y881584D01*
X1214284Y883174D01*
X1212336Y884298D01*
X1210164Y884880D01*
D02*
G37*
G36*
X980294D02*
X978046D01*
X975874Y884298D01*
X973926Y883174D01*
X972336Y881584D01*
X971212Y879636D01*
X970630Y877464D01*
Y875216D01*
X971212Y873044D01*
X972336Y871096D01*
X973926Y869506D01*
X975874Y868382D01*
X978046Y867800D01*
X980294D01*
X982466Y868382D01*
X984414Y869506D01*
X986004Y871096D01*
X987128Y873044D01*
X987710Y875216D01*
Y877464D01*
X987128Y879636D01*
X986004Y881584D01*
X984414Y883174D01*
X982466Y884298D01*
X980294Y884880D01*
D02*
G37*
G36*
X1210164Y864880D02*
X1207916D01*
X1205744Y864298D01*
X1203796Y863174D01*
X1202206Y861584D01*
X1201082Y859636D01*
X1200500Y857464D01*
Y855216D01*
X1201082Y853044D01*
X1202206Y851096D01*
X1203796Y849506D01*
X1205744Y848382D01*
X1207916Y847800D01*
X1210164D01*
X1212336Y848382D01*
X1214284Y849506D01*
X1215874Y851096D01*
X1216998Y853044D01*
X1217580Y855216D01*
Y857464D01*
X1216998Y859636D01*
X1215874Y861584D01*
X1214284Y863174D01*
X1212336Y864298D01*
X1210164Y864880D01*
D02*
G37*
G36*
X980294D02*
X978046D01*
X975874Y864298D01*
X973926Y863174D01*
X972336Y861584D01*
X971212Y859636D01*
X970630Y857464D01*
Y855216D01*
X971212Y853044D01*
X972336Y851096D01*
X973926Y849506D01*
X975874Y848382D01*
X978046Y847800D01*
X980294D01*
X982466Y848382D01*
X984414Y849506D01*
X986004Y851096D01*
X987128Y853044D01*
X987710Y855216D01*
Y857464D01*
X987128Y859636D01*
X986004Y861584D01*
X984414Y863174D01*
X982466Y864298D01*
X980294Y864880D01*
D02*
G37*
G36*
X306220Y866770D02*
X303379D01*
X300635Y866035D01*
X298175Y864614D01*
X296166Y862605D01*
X294745Y860145D01*
X294010Y857401D01*
Y854559D01*
X294745Y851815D01*
X296166Y849355D01*
X298175Y847346D01*
X300635Y845925D01*
X303379Y845190D01*
X306220D01*
X308965Y845925D01*
X311425Y847346D01*
X313434Y849355D01*
X314855Y851815D01*
X315590Y854559D01*
Y857401D01*
X314855Y860145D01*
X313434Y862605D01*
X311425Y864614D01*
X308965Y866035D01*
X306220Y866770D01*
D02*
G37*
G36*
X1210164Y844880D02*
X1207916D01*
X1205744Y844298D01*
X1203796Y843174D01*
X1202206Y841584D01*
X1201082Y839636D01*
X1200500Y837464D01*
Y835216D01*
X1201082Y833044D01*
X1202206Y831096D01*
X1203796Y829506D01*
X1205744Y828382D01*
X1207916Y827800D01*
X1210164D01*
X1212336Y828382D01*
X1214284Y829506D01*
X1215874Y831096D01*
X1216998Y833044D01*
X1217580Y835216D01*
Y837464D01*
X1216998Y839636D01*
X1215874Y841584D01*
X1214284Y843174D01*
X1212336Y844298D01*
X1210164Y844880D01*
D02*
G37*
G36*
X980294D02*
X978046D01*
X975874Y844298D01*
X973926Y843174D01*
X972336Y841584D01*
X971212Y839636D01*
X970630Y837464D01*
Y835216D01*
X971212Y833044D01*
X972336Y831096D01*
X973926Y829506D01*
X975874Y828382D01*
X978046Y827800D01*
X980294D01*
X982466Y828382D01*
X984414Y829506D01*
X986004Y831096D01*
X987128Y833044D01*
X987710Y835216D01*
Y837464D01*
X987128Y839636D01*
X986004Y841584D01*
X984414Y843174D01*
X982466Y844298D01*
X980294Y844880D01*
D02*
G37*
G36*
X306220Y841770D02*
X303379D01*
X300635Y841035D01*
X298175Y839614D01*
X296166Y837605D01*
X294745Y835145D01*
X294010Y832401D01*
Y829559D01*
X294745Y826815D01*
X296166Y824355D01*
X298175Y822346D01*
X300635Y820925D01*
X303379Y820190D01*
X306220D01*
X308965Y820925D01*
X311425Y822346D01*
X313434Y824355D01*
X314855Y826815D01*
X315590Y829559D01*
Y832401D01*
X314855Y835145D01*
X313434Y837605D01*
X311425Y839614D01*
X308965Y841035D01*
X306220Y841770D01*
D02*
G37*
G36*
X482600Y942439D02*
X481851Y942340D01*
X481095D01*
X480365Y942144D01*
X479616Y942046D01*
X478918Y941757D01*
X478188Y941561D01*
X477534Y941183D01*
X476836Y940894D01*
X476236Y940434D01*
X475582Y940056D01*
X475048Y939522D01*
X474448Y939062D01*
X473988Y938462D01*
X473454Y937928D01*
X473076Y937274D01*
X472616Y936674D01*
X472327Y935976D01*
X471949Y935322D01*
X471753Y934592D01*
X471464Y933894D01*
X471366Y933145D01*
X471170Y932415D01*
Y931659D01*
X471071Y930910D01*
Y872490D01*
X471464Y869506D01*
X472616Y866726D01*
X474448Y864338D01*
X513093Y825693D01*
X514961Y824260D01*
X515364Y823562D01*
X517492Y821434D01*
X520098Y819929D01*
X523005Y819150D01*
X526015D01*
X528922Y819929D01*
X531528Y821434D01*
X533656Y823562D01*
X535161Y826168D01*
X535940Y829075D01*
Y832085D01*
X535161Y834992D01*
X533656Y837598D01*
X531528Y839726D01*
X530830Y840129D01*
X529397Y841997D01*
X494129Y877265D01*
Y930910D01*
X494030Y931659D01*
Y932415D01*
X493834Y933145D01*
X493736Y933894D01*
X493447Y934592D01*
X493251Y935322D01*
X492873Y935976D01*
X492584Y936674D01*
X492124Y937274D01*
X491746Y937928D01*
X491212Y938462D01*
X490752Y939062D01*
X490152Y939522D01*
X489618Y940056D01*
X488964Y940434D01*
X488364Y940894D01*
X487666Y941183D01*
X487012Y941561D01*
X486282Y941757D01*
X485584Y942046D01*
X484835Y942144D01*
X484105Y942340D01*
X483349D01*
X482600Y942439D01*
D02*
G37*
G36*
X1210164Y824880D02*
X1207916D01*
X1205744Y824298D01*
X1203796Y823174D01*
X1202206Y821584D01*
X1201082Y819636D01*
X1200500Y817464D01*
Y815216D01*
X1201082Y813044D01*
X1202206Y811096D01*
X1203796Y809506D01*
X1205744Y808382D01*
X1207916Y807800D01*
X1210164D01*
X1212336Y808382D01*
X1214284Y809506D01*
X1215874Y811096D01*
X1216998Y813044D01*
X1217580Y815216D01*
Y817464D01*
X1216998Y819636D01*
X1215874Y821584D01*
X1214284Y823174D01*
X1212336Y824298D01*
X1210164Y824880D01*
D02*
G37*
G36*
X980294D02*
X978046D01*
X975874Y824298D01*
X973926Y823174D01*
X972336Y821584D01*
X971212Y819636D01*
X970630Y817464D01*
Y815216D01*
X971212Y813044D01*
X972336Y811096D01*
X973926Y809506D01*
X975874Y808382D01*
X978046Y807800D01*
X980294D01*
X982466Y808382D01*
X984414Y809506D01*
X986004Y811096D01*
X987128Y813044D01*
X987710Y815216D01*
Y817464D01*
X987128Y819636D01*
X986004Y821584D01*
X984414Y823174D01*
X982466Y824298D01*
X980294Y824880D01*
D02*
G37*
G36*
X1210310Y804841D02*
Y797610D01*
X1217541D01*
X1216998Y799636D01*
X1215874Y801584D01*
X1214284Y803174D01*
X1212336Y804298D01*
X1210310Y804841D01*
D02*
G37*
G36*
X1207770D02*
X1205744Y804298D01*
X1203796Y803174D01*
X1202206Y801584D01*
X1201082Y799636D01*
X1200539Y797610D01*
X1207770D01*
Y804841D01*
D02*
G37*
G36*
Y795070D02*
X1200539D01*
X1201082Y793044D01*
X1202206Y791096D01*
X1203796Y789506D01*
X1205744Y788382D01*
X1207770Y787839D01*
Y795070D01*
D02*
G37*
G36*
X1217541D02*
X1210310D01*
Y787839D01*
X1212336Y788382D01*
X1214284Y789506D01*
X1215874Y791096D01*
X1216998Y793044D01*
X1217541Y795070D01*
D02*
G37*
G36*
X980294Y804880D02*
X978046D01*
X975874Y804298D01*
X973926Y803174D01*
X972336Y801584D01*
X971212Y799636D01*
X970630Y797464D01*
Y795216D01*
X971212Y793044D01*
X972336Y791096D01*
X973926Y789506D01*
X975874Y788382D01*
X978046Y787800D01*
X980294D01*
X982466Y788382D01*
X984414Y789506D01*
X986004Y791096D01*
X987128Y793044D01*
X987710Y795216D01*
Y797464D01*
X987128Y799636D01*
X986004Y801584D01*
X984414Y803174D01*
X982466Y804298D01*
X980294Y804880D01*
D02*
G37*
G36*
X1210310Y784841D02*
Y777610D01*
X1217541D01*
X1216998Y779636D01*
X1215874Y781584D01*
X1214284Y783174D01*
X1212336Y784298D01*
X1210310Y784841D01*
D02*
G37*
G36*
X987710Y784880D02*
X980440D01*
Y777610D01*
X987710D01*
Y784880D01*
D02*
G37*
G36*
X977900D02*
X970630D01*
Y777610D01*
X977900D01*
Y784880D01*
D02*
G37*
G36*
X1207770Y784841D02*
X1205744Y784298D01*
X1203796Y783174D01*
X1202206Y781584D01*
X1201082Y779636D01*
X1200539Y777610D01*
X1207770D01*
Y784841D01*
D02*
G37*
G36*
X1217541Y775070D02*
X1210310D01*
Y767839D01*
X1212336Y768382D01*
X1214284Y769506D01*
X1215874Y771096D01*
X1216998Y773044D01*
X1217541Y775070D01*
D02*
G37*
G36*
X1207770D02*
X1200539D01*
X1201082Y773044D01*
X1202206Y771096D01*
X1203796Y769506D01*
X1205744Y768382D01*
X1207770Y767839D01*
Y775070D01*
D02*
G37*
G36*
X987710D02*
X980440D01*
Y767800D01*
X987710D01*
Y775070D01*
D02*
G37*
G36*
X977900D02*
X970630D01*
Y767800D01*
X977900D01*
Y775070D01*
D02*
G37*
G36*
X1109880Y764540D02*
X1107540D01*
X1105279Y763934D01*
X1103251Y762764D01*
X1101596Y761109D01*
X1100426Y759081D01*
X1099820Y756820D01*
Y754480D01*
X1100426Y752219D01*
X1101596Y750191D01*
X1103251Y748536D01*
X1105279Y747366D01*
X1107540Y746760D01*
X1108444D01*
X1120642Y734562D01*
X1122742Y733158D01*
X1125220Y732666D01*
X1184768D01*
X1192704Y724730D01*
Y719893D01*
X1191866Y718441D01*
X1191260Y716180D01*
Y713840D01*
X1191866Y711579D01*
X1193036Y709551D01*
X1194691Y707896D01*
X1196719Y706726D01*
X1198980Y706120D01*
X1201320D01*
X1203581Y706726D01*
X1205609Y707896D01*
X1207264Y709551D01*
X1208434Y711579D01*
X1209040Y713840D01*
Y716180D01*
X1208434Y718441D01*
X1207264Y720469D01*
X1205652Y722080D01*
Y727412D01*
X1205160Y729890D01*
X1203756Y731990D01*
X1192028Y743718D01*
X1189928Y745122D01*
X1187450Y745614D01*
X1127902D01*
X1117600Y755916D01*
Y756820D01*
X1116994Y759081D01*
X1115824Y761109D01*
X1114169Y762764D01*
X1112141Y763934D01*
X1109880Y764540D01*
D02*
G37*
G36*
X1210164Y1164880D02*
X1207916D01*
X1205744Y1164298D01*
X1203796Y1163174D01*
X1202206Y1161584D01*
X1201082Y1159636D01*
X1200500Y1157464D01*
Y1155216D01*
X1201082Y1153044D01*
X1202206Y1151096D01*
X1203796Y1149506D01*
X1205744Y1148382D01*
X1207916Y1147800D01*
X1210164D01*
X1212336Y1148382D01*
X1214284Y1149506D01*
X1214643Y1149866D01*
X1262868D01*
X1328220Y1084514D01*
Y715952D01*
X1327656Y715389D01*
X1326486Y713361D01*
X1325880Y711100D01*
Y708760D01*
X1326486Y706499D01*
X1327656Y704471D01*
X1329311Y702816D01*
X1331339Y701646D01*
X1333600Y701040D01*
X1335940D01*
X1338201Y701646D01*
X1340229Y702816D01*
X1341884Y704471D01*
X1343054Y706499D01*
X1343660Y708760D01*
Y711100D01*
X1343054Y713361D01*
X1341884Y715389D01*
X1341169Y716104D01*
Y1087196D01*
X1340676Y1089673D01*
X1339272Y1091774D01*
X1270128Y1160918D01*
X1268028Y1162322D01*
X1265550Y1162814D01*
X1214643D01*
X1214284Y1163174D01*
X1212336Y1164298D01*
X1210164Y1164880D01*
D02*
G37*
G36*
X1227990Y701040D02*
X1225650D01*
X1223389Y700434D01*
X1221361Y699264D01*
X1220087Y697989D01*
X1057023D01*
X1057019Y697994D01*
X1054991Y699164D01*
X1052730Y699770D01*
X1050390D01*
X1048129Y699164D01*
X1046101Y697994D01*
X1044446Y696339D01*
X1043276Y694311D01*
X1042670Y692050D01*
Y689710D01*
X1043276Y687449D01*
X1044446Y685421D01*
X1046101Y683766D01*
X1048129Y682596D01*
X1050390Y681990D01*
X1052730D01*
X1054991Y682596D01*
X1057019Y683766D01*
X1058293Y685041D01*
X1221357D01*
X1221361Y685036D01*
X1223389Y683866D01*
X1225650Y683260D01*
X1227990D01*
X1230251Y683866D01*
X1232279Y685036D01*
X1233934Y686691D01*
X1235104Y688719D01*
X1235710Y690980D01*
Y693320D01*
X1235104Y695581D01*
X1233934Y697609D01*
X1232279Y699264D01*
X1230251Y700434D01*
X1227990Y701040D01*
D02*
G37*
G36*
X1610520Y706825D02*
X1607660D01*
X1604896Y706085D01*
X1602419Y704654D01*
X1600396Y702631D01*
X1598965Y700154D01*
X1598225Y697390D01*
Y694530D01*
X1598965Y691766D01*
X1600396Y689289D01*
X1602419Y687266D01*
X1604896Y685835D01*
X1607660Y685095D01*
X1610520D01*
X1613284Y685835D01*
X1615761Y687266D01*
X1617784Y689289D01*
X1619215Y691766D01*
X1619955Y694530D01*
Y697390D01*
X1619215Y700154D01*
X1617784Y702631D01*
X1615761Y704654D01*
X1613284Y706085D01*
X1610520Y706825D01*
D02*
G37*
G36*
X1320994Y1145389D02*
X1318654D01*
X1316393Y1144783D01*
X1314365Y1143613D01*
X1312710Y1141957D01*
X1311540Y1139930D01*
X1310934Y1137669D01*
Y1135329D01*
X1311540Y1133067D01*
X1312710Y1131040D01*
X1314365Y1129385D01*
X1316393Y1128215D01*
X1318654Y1127609D01*
X1319558D01*
X1354966Y1092201D01*
Y694438D01*
X1354417Y693889D01*
X1353246Y691862D01*
X1352640Y689601D01*
Y687260D01*
X1353246Y684999D01*
X1354417Y682972D01*
X1356072Y681317D01*
X1358099Y680146D01*
X1360360Y679540D01*
X1362701D01*
X1364962Y680146D01*
X1366989Y681317D01*
X1368644Y682972D01*
X1369814Y684999D01*
X1370420Y687260D01*
Y689601D01*
X1369814Y691862D01*
X1368644Y693889D01*
X1367914Y694618D01*
Y1094883D01*
X1367422Y1097361D01*
X1366018Y1099461D01*
X1328714Y1136765D01*
Y1137669D01*
X1328108Y1139930D01*
X1326938Y1141957D01*
X1325283Y1143613D01*
X1323255Y1144783D01*
X1320994Y1145389D01*
D02*
G37*
G36*
X1227990Y679450D02*
X1225650D01*
X1223389Y678844D01*
X1221361Y677674D01*
X1220087Y676399D01*
X1055753D01*
X1055749Y676404D01*
X1053721Y677574D01*
X1051460Y678180D01*
X1049120D01*
X1046859Y677574D01*
X1044831Y676404D01*
X1043176Y674749D01*
X1042006Y672721D01*
X1041400Y670460D01*
Y668120D01*
X1042006Y665859D01*
X1043176Y663831D01*
X1044831Y662176D01*
X1046859Y661006D01*
X1049120Y660400D01*
X1051460D01*
X1053721Y661006D01*
X1055749Y662176D01*
X1057023Y663451D01*
X1221357D01*
X1221361Y663446D01*
X1223389Y662276D01*
X1225650Y661670D01*
X1227990D01*
X1230251Y662276D01*
X1232279Y663446D01*
X1233934Y665101D01*
X1235104Y667129D01*
X1235710Y669390D01*
Y671730D01*
X1235104Y673991D01*
X1233934Y676019D01*
X1232279Y677674D01*
X1230251Y678844D01*
X1227990Y679450D01*
D02*
G37*
G36*
X1610520Y681425D02*
X1610360D01*
Y671830D01*
X1619955D01*
Y671990D01*
X1619215Y674754D01*
X1617784Y677231D01*
X1615761Y679254D01*
X1613284Y680685D01*
X1610520Y681425D01*
D02*
G37*
G36*
X1607820D02*
X1607660D01*
X1604896Y680685D01*
X1602419Y679254D01*
X1600396Y677231D01*
X1598965Y674754D01*
X1598225Y671990D01*
Y671830D01*
X1607820D01*
Y681425D01*
D02*
G37*
G36*
X1619955Y669290D02*
X1610360D01*
Y659695D01*
X1610520D01*
X1613284Y660435D01*
X1615761Y661866D01*
X1617784Y663889D01*
X1619215Y666366D01*
X1619955Y669130D01*
Y669290D01*
D02*
G37*
G36*
X1607820D02*
X1598225D01*
Y669130D01*
X1598965Y666366D01*
X1600396Y663889D01*
X1602419Y661866D01*
X1604896Y660435D01*
X1607660Y659695D01*
X1607820D01*
Y669290D01*
D02*
G37*
G36*
X1229260Y657860D02*
X1226920D01*
X1224659Y657254D01*
X1222631Y656084D01*
X1221992Y655444D01*
X1056388D01*
X1055749Y656084D01*
X1053721Y657254D01*
X1051460Y657860D01*
X1049120D01*
X1046859Y657254D01*
X1044831Y656084D01*
X1043176Y654429D01*
X1042006Y652401D01*
X1041400Y650140D01*
Y647800D01*
X1042006Y645539D01*
X1043176Y643511D01*
X1044831Y641856D01*
X1046859Y640686D01*
X1049120Y640080D01*
X1051460D01*
X1053721Y640686D01*
X1055749Y641856D01*
X1056388Y642496D01*
X1221992D01*
X1222631Y641856D01*
X1224659Y640686D01*
X1226920Y640080D01*
X1229260D01*
X1231521Y640686D01*
X1233549Y641856D01*
X1235204Y643511D01*
X1236374Y645539D01*
X1236980Y647800D01*
Y650140D01*
X1236374Y652401D01*
X1235204Y654429D01*
X1233549Y656084D01*
X1231521Y657254D01*
X1229260Y657860D01*
D02*
G37*
G36*
X1610520Y656025D02*
X1607660D01*
X1604896Y655285D01*
X1602419Y653854D01*
X1600396Y651831D01*
X1598965Y649354D01*
X1598225Y646590D01*
Y643730D01*
X1598965Y640966D01*
X1600396Y638489D01*
X1602419Y636466D01*
X1604896Y635035D01*
X1607660Y634295D01*
X1610520D01*
X1613284Y635035D01*
X1615761Y636466D01*
X1617784Y638489D01*
X1619215Y640966D01*
X1619955Y643730D01*
Y646590D01*
X1619215Y649354D01*
X1617784Y651831D01*
X1615761Y653854D01*
X1613284Y655285D01*
X1610520Y656025D01*
D02*
G37*
G36*
Y630625D02*
X1607660D01*
X1604896Y629885D01*
X1602419Y628454D01*
X1600396Y626431D01*
X1598965Y623954D01*
X1598225Y621190D01*
Y618330D01*
X1598965Y615566D01*
X1600396Y613089D01*
X1602419Y611066D01*
X1604896Y609635D01*
X1607660Y608895D01*
X1610520D01*
X1613284Y609635D01*
X1615761Y611066D01*
X1617784Y613089D01*
X1619215Y615566D01*
X1619955Y618330D01*
Y621190D01*
X1619215Y623954D01*
X1617784Y626431D01*
X1615761Y628454D01*
X1613284Y629885D01*
X1610520Y630625D01*
D02*
G37*
G36*
Y605225D02*
X1607660D01*
X1604896Y604485D01*
X1602419Y603054D01*
X1600396Y601031D01*
X1598965Y598554D01*
X1598225Y595790D01*
Y592930D01*
X1598965Y590166D01*
X1600396Y587689D01*
X1602419Y585666D01*
X1604896Y584235D01*
X1607660Y583495D01*
X1610520D01*
X1613284Y584235D01*
X1615761Y585666D01*
X1617784Y587689D01*
X1619215Y590166D01*
X1619955Y592930D01*
Y595790D01*
X1619215Y598554D01*
X1617784Y601031D01*
X1615761Y603054D01*
X1613284Y604485D01*
X1610520Y605225D01*
D02*
G37*
G36*
X798830Y575283D02*
Y567690D01*
X806423D01*
X805844Y569851D01*
X804674Y571879D01*
X803019Y573534D01*
X800991Y574704D01*
X798830Y575283D01*
D02*
G37*
G36*
X796290D02*
X794129Y574704D01*
X792101Y573534D01*
X790446Y571879D01*
X789276Y569851D01*
X788697Y567690D01*
X796290D01*
Y575283D01*
D02*
G37*
G36*
X665480D02*
Y567690D01*
X673073D01*
X672494Y569851D01*
X671324Y571879D01*
X669669Y573534D01*
X667641Y574704D01*
X665480Y575283D01*
D02*
G37*
G36*
X662940D02*
X660779Y574704D01*
X658751Y573534D01*
X657096Y571879D01*
X655926Y569851D01*
X655347Y567690D01*
X662940D01*
Y575283D01*
D02*
G37*
G36*
X1619955Y579825D02*
X1598225D01*
Y558095D01*
X1619955D01*
Y579825D01*
D02*
G37*
G36*
X806423Y565150D02*
X798830D01*
Y557557D01*
X800991Y558136D01*
X803019Y559306D01*
X804674Y560961D01*
X805844Y562989D01*
X806423Y565150D01*
D02*
G37*
G36*
X796290D02*
X788697D01*
X789276Y562989D01*
X790446Y560961D01*
X792101Y559306D01*
X794129Y558136D01*
X796290Y557557D01*
Y565150D01*
D02*
G37*
G36*
X673073D02*
X665480D01*
Y557557D01*
X667641Y558136D01*
X669669Y559306D01*
X671324Y560961D01*
X672494Y562989D01*
X673073Y565150D01*
D02*
G37*
G36*
X662940D02*
X655347D01*
X655926Y562989D01*
X657096Y560961D01*
X658751Y559306D01*
X660779Y558136D01*
X662940Y557557D01*
Y565150D01*
D02*
G37*
G36*
X1064160Y637540D02*
X1061820D01*
X1059559Y636934D01*
X1057531Y635764D01*
X1055876Y634109D01*
X1054706Y632081D01*
X1054100Y629820D01*
Y627480D01*
X1054602Y625608D01*
X1003034Y574040D01*
X1002130D01*
X999869Y573434D01*
X997841Y572264D01*
X996186Y570609D01*
X995016Y568581D01*
X994410Y566320D01*
Y563980D01*
X995016Y561719D01*
X996186Y559691D01*
X997841Y558036D01*
X999869Y556866D01*
X1002130Y556260D01*
X1004470D01*
X1006731Y556866D01*
X1008759Y558036D01*
X1010414Y559691D01*
X1011584Y561719D01*
X1012190Y563980D01*
Y564884D01*
X1066596Y619290D01*
X1067876Y621206D01*
X1068449Y621536D01*
X1070104Y623191D01*
X1071274Y625219D01*
X1071880Y627480D01*
Y629820D01*
X1071274Y632081D01*
X1070104Y634109D01*
X1068449Y635764D01*
X1066421Y636934D01*
X1064160Y637540D01*
D02*
G37*
G36*
X1200635Y559285D02*
X1176805D01*
Y535455D01*
X1200635D01*
Y559285D01*
D02*
G37*
G36*
X895835D02*
X872005D01*
Y535455D01*
X895835D01*
Y559285D01*
D02*
G37*
G36*
X936883Y731619D02*
X934720D01*
X933971Y731520D01*
X933215D01*
X932485Y731324D01*
X931736Y731226D01*
X931038Y730937D01*
X930308Y730741D01*
X929654Y730363D01*
X928956Y730074D01*
X928356Y729614D01*
X927702Y729236D01*
X927168Y728702D01*
X926568Y728242D01*
X926108Y727642D01*
X925574Y727108D01*
X925196Y726454D01*
X924736Y725854D01*
X924447Y725156D01*
X924069Y724502D01*
X923873Y723772D01*
X923584Y723074D01*
X923486Y722325D01*
X923290Y721595D01*
Y720839D01*
X923191Y720090D01*
X923290Y719341D01*
Y718585D01*
X923486Y717855D01*
X923584Y717106D01*
X923873Y716408D01*
X924069Y715678D01*
X924447Y715024D01*
X924736Y714326D01*
X925196Y713726D01*
X925574Y713072D01*
X926108Y712538D01*
X926568Y711938D01*
X927168Y711478D01*
X927702Y710944D01*
X928356Y710566D01*
X928956Y710106D01*
X929654Y709817D01*
X930308Y709439D01*
X931038Y709243D01*
X931701Y708969D01*
X956339Y684331D01*
Y552578D01*
X956732Y549594D01*
X957884Y546813D01*
X959716Y544426D01*
X980163Y523978D01*
X982551Y522146D01*
X985331Y520994D01*
X988315Y520601D01*
X1037590D01*
X1040574Y520994D01*
X1043354Y522146D01*
X1045742Y523978D01*
X1094435Y572671D01*
X1283970D01*
X1286954Y573064D01*
X1289734Y574216D01*
X1292122Y576048D01*
X1343355Y627281D01*
X1388110D01*
X1388859Y627380D01*
X1389615D01*
X1390345Y627576D01*
X1391094Y627674D01*
X1391792Y627963D01*
X1392522Y628159D01*
X1393176Y628537D01*
X1393874Y628826D01*
X1394474Y629286D01*
X1395128Y629664D01*
X1395662Y630198D01*
X1396262Y630658D01*
X1396722Y631258D01*
X1397256Y631792D01*
X1397634Y632446D01*
X1398094Y633046D01*
X1398383Y633744D01*
X1398761Y634398D01*
X1398957Y635128D01*
X1399246Y635826D01*
X1399344Y636575D01*
X1399540Y637305D01*
Y638061D01*
X1399639Y638810D01*
X1399540Y639559D01*
Y640315D01*
X1399344Y641045D01*
X1399246Y641794D01*
X1398957Y642492D01*
X1398761Y643222D01*
X1398383Y643876D01*
X1398094Y644574D01*
X1397634Y645174D01*
X1397256Y645828D01*
X1396722Y646362D01*
X1396262Y646962D01*
X1395662Y647422D01*
X1395128Y647956D01*
X1394474Y648334D01*
X1393874Y648794D01*
X1393176Y649083D01*
X1392522Y649461D01*
X1391792Y649657D01*
X1391094Y649946D01*
X1390345Y650044D01*
X1389615Y650240D01*
X1388859D01*
X1388110Y650339D01*
X1338580D01*
X1335596Y649946D01*
X1332816Y648794D01*
X1330428Y646962D01*
X1279195Y595729D01*
X1089660D01*
X1086676Y595336D01*
X1083896Y594184D01*
X1081508Y592352D01*
X1032815Y543659D01*
X993091D01*
X979396Y557353D01*
Y689106D01*
X979004Y692090D01*
X977852Y694870D01*
X976020Y697258D01*
X945035Y728242D01*
X942648Y730074D01*
X939867Y731226D01*
X936883Y731619D01*
D02*
G37*
G36*
X1190289Y533885D02*
X1187151D01*
X1184121Y533073D01*
X1181404Y531504D01*
X1179186Y529286D01*
X1177617Y526569D01*
X1176805Y523539D01*
Y520401D01*
X1177617Y517371D01*
X1179186Y514654D01*
X1181404Y512436D01*
X1184121Y510867D01*
X1187151Y510055D01*
X1190289D01*
X1193319Y510867D01*
X1196036Y512436D01*
X1198254Y514654D01*
X1199823Y517371D01*
X1200635Y520401D01*
Y523539D01*
X1199823Y526569D01*
X1198254Y529286D01*
X1196036Y531504D01*
X1193319Y533073D01*
X1190289Y533885D01*
D02*
G37*
G36*
X885489D02*
X882351D01*
X879321Y533073D01*
X876604Y531504D01*
X874386Y529286D01*
X872817Y526569D01*
X872005Y523539D01*
Y520401D01*
X872817Y517371D01*
X874386Y514654D01*
X876604Y512436D01*
X879321Y510867D01*
X882351Y510055D01*
X885489D01*
X888519Y510867D01*
X891236Y512436D01*
X893454Y514654D01*
X895023Y517371D01*
X895835Y520401D01*
Y523539D01*
X895023Y526569D01*
X893454Y529286D01*
X891236Y531504D01*
X888519Y533073D01*
X885489Y533885D01*
D02*
G37*
G36*
X1190289Y508485D02*
X1189990D01*
Y497840D01*
X1200635D01*
Y498139D01*
X1199823Y501169D01*
X1198254Y503886D01*
X1196036Y506104D01*
X1193319Y507673D01*
X1190289Y508485D01*
D02*
G37*
G36*
X885489D02*
X885190D01*
Y497840D01*
X895835D01*
Y498139D01*
X895023Y501169D01*
X893454Y503886D01*
X891236Y506104D01*
X888519Y507673D01*
X885489Y508485D01*
D02*
G37*
G36*
X1290320Y505433D02*
Y497840D01*
X1297913D01*
X1297334Y500001D01*
X1296164Y502029D01*
X1294509Y503684D01*
X1292481Y504854D01*
X1290320Y505433D01*
D02*
G37*
G36*
X1287780D02*
X1285619Y504854D01*
X1283591Y503684D01*
X1281936Y502029D01*
X1280766Y500001D01*
X1280187Y497840D01*
X1287780D01*
Y505433D01*
D02*
G37*
G36*
X1187450Y508485D02*
X1187151D01*
X1184121Y507673D01*
X1181404Y506104D01*
X1179186Y503886D01*
X1177617Y501169D01*
X1176805Y498139D01*
Y497840D01*
X1187450D01*
Y508485D01*
D02*
G37*
G36*
X882650D02*
X882351D01*
X879321Y507673D01*
X876604Y506104D01*
X874386Y503886D01*
X872817Y501169D01*
X872005Y498139D01*
Y497840D01*
X882650D01*
Y508485D01*
D02*
G37*
G36*
X1297913Y495300D02*
X1290320D01*
Y487707D01*
X1292481Y488286D01*
X1294509Y489456D01*
X1296164Y491111D01*
X1297334Y493139D01*
X1297913Y495300D01*
D02*
G37*
G36*
X1287780D02*
X1280187D01*
X1280766Y493139D01*
X1281936Y491111D01*
X1283591Y489456D01*
X1285619Y488286D01*
X1287780Y487707D01*
Y495300D01*
D02*
G37*
G36*
X1200635D02*
X1189990D01*
Y484655D01*
X1190289D01*
X1193319Y485467D01*
X1196036Y487036D01*
X1198254Y489254D01*
X1199823Y491971D01*
X1200635Y495001D01*
Y495300D01*
D02*
G37*
G36*
X1187450D02*
X1176805D01*
Y495001D01*
X1177617Y491971D01*
X1179186Y489254D01*
X1181404Y487036D01*
X1184121Y485467D01*
X1187151Y484655D01*
X1187450D01*
Y495300D01*
D02*
G37*
G36*
X895835D02*
X885190D01*
Y484655D01*
X885489D01*
X888519Y485467D01*
X891236Y487036D01*
X893454Y489254D01*
X895023Y491971D01*
X895835Y495001D01*
Y495300D01*
D02*
G37*
G36*
X882650D02*
X872005D01*
Y495001D01*
X872817Y491971D01*
X874386Y489254D01*
X876604Y487036D01*
X879321Y485467D01*
X882351Y484655D01*
X882650D01*
Y495300D01*
D02*
G37*
G36*
X778809Y481815D02*
X778510D01*
Y471170D01*
X789155D01*
Y471469D01*
X788343Y474499D01*
X786774Y477216D01*
X784556Y479434D01*
X781839Y481003D01*
X778809Y481815D01*
D02*
G37*
G36*
X775970D02*
X775671D01*
X772641Y481003D01*
X769924Y479434D01*
X767706Y477216D01*
X766137Y474499D01*
X765325Y471469D01*
Y471170D01*
X775970D01*
Y481815D01*
D02*
G37*
G36*
X645459D02*
X645160D01*
Y471170D01*
X655805D01*
Y471469D01*
X654993Y474499D01*
X653424Y477216D01*
X651206Y479434D01*
X648489Y481003D01*
X645459Y481815D01*
D02*
G37*
G36*
X642620D02*
X642321D01*
X639291Y481003D01*
X636574Y479434D01*
X634356Y477216D01*
X632787Y474499D01*
X631975Y471469D01*
Y471170D01*
X642620D01*
Y481815D01*
D02*
G37*
G36*
X980440Y469873D02*
Y462280D01*
X988033D01*
X987454Y464441D01*
X986284Y466469D01*
X984629Y468124D01*
X982601Y469294D01*
X980440Y469873D01*
D02*
G37*
G36*
X977900D02*
X975739Y469294D01*
X973711Y468124D01*
X972056Y466469D01*
X970886Y464441D01*
X970307Y462280D01*
X977900D01*
Y469873D01*
D02*
G37*
G36*
X789155Y468630D02*
X778510D01*
Y457985D01*
X778809D01*
X781839Y458797D01*
X784556Y460366D01*
X786774Y462584D01*
X788343Y465301D01*
X789155Y468331D01*
Y468630D01*
D02*
G37*
G36*
X775970D02*
X765325D01*
Y468331D01*
X766137Y465301D01*
X767706Y462584D01*
X769924Y460366D01*
X772641Y458797D01*
X775671Y457985D01*
X775970D01*
Y468630D01*
D02*
G37*
G36*
X753409Y481815D02*
X750271D01*
X747241Y481003D01*
X744524Y479434D01*
X742306Y477216D01*
X740737Y474499D01*
X739925Y471469D01*
Y468331D01*
X740737Y465301D01*
X742306Y462584D01*
X744524Y460366D01*
X747241Y458797D01*
X750271Y457985D01*
X753409D01*
X756439Y458797D01*
X759156Y460366D01*
X761374Y462584D01*
X762943Y465301D01*
X763755Y468331D01*
Y471469D01*
X762943Y474499D01*
X761374Y477216D01*
X759156Y479434D01*
X756439Y481003D01*
X753409Y481815D01*
D02*
G37*
G36*
X738355D02*
X714525D01*
Y457985D01*
X738355D01*
Y481815D01*
D02*
G37*
G36*
X655805Y468630D02*
X645160D01*
Y457985D01*
X645459D01*
X648489Y458797D01*
X651206Y460366D01*
X653424Y462584D01*
X654993Y465301D01*
X655805Y468331D01*
Y468630D01*
D02*
G37*
G36*
X642620D02*
X631975D01*
Y468331D01*
X632787Y465301D01*
X634356Y462584D01*
X636574Y460366D01*
X639291Y458797D01*
X642321Y457985D01*
X642620D01*
Y468630D01*
D02*
G37*
G36*
X620059Y481815D02*
X616921D01*
X613891Y481003D01*
X611174Y479434D01*
X608956Y477216D01*
X607387Y474499D01*
X606575Y471469D01*
Y468331D01*
X607387Y465301D01*
X608956Y462584D01*
X611174Y460366D01*
X613891Y458797D01*
X616921Y457985D01*
X620059D01*
X623089Y458797D01*
X625806Y460366D01*
X628024Y462584D01*
X629593Y465301D01*
X630405Y468331D01*
Y471469D01*
X629593Y474499D01*
X628024Y477216D01*
X625806Y479434D01*
X623089Y481003D01*
X620059Y481815D01*
D02*
G37*
G36*
X605005D02*
X581175D01*
Y457985D01*
X605005D01*
Y481815D01*
D02*
G37*
G36*
X988033Y459740D02*
X980440D01*
Y452147D01*
X982601Y452726D01*
X984629Y453896D01*
X986284Y455551D01*
X987454Y457579D01*
X988033Y459740D01*
D02*
G37*
G36*
X977900D02*
X970307D01*
X970886Y457579D01*
X972056Y455551D01*
X973711Y453896D01*
X975739Y452726D01*
X977900Y452147D01*
Y459740D01*
D02*
G37*
G36*
X318130Y427350D02*
X296550D01*
Y405770D01*
X318130D01*
Y427350D01*
D02*
G37*
G36*
X308761Y402350D02*
X308610D01*
Y392830D01*
X318130D01*
Y392980D01*
X317395Y395725D01*
X315974Y398185D01*
X313965Y400194D01*
X311505Y401615D01*
X308761Y402350D01*
D02*
G37*
G36*
X306070D02*
X305919D01*
X303175Y401615D01*
X300715Y400194D01*
X298706Y398185D01*
X297285Y395725D01*
X296550Y392980D01*
Y392830D01*
X306070D01*
Y402350D01*
D02*
G37*
G36*
X318130Y390290D02*
X308610D01*
Y380770D01*
X308761D01*
X311505Y381505D01*
X313965Y382926D01*
X315974Y384935D01*
X317395Y387395D01*
X318130Y390140D01*
Y390290D01*
D02*
G37*
G36*
X306070D02*
X296550D01*
Y390140D01*
X297285Y387395D01*
X298706Y384935D01*
X300715Y382926D01*
X303175Y381505D01*
X305919Y380770D01*
X306070D01*
Y390290D01*
D02*
G37*
G36*
X792380Y378460D02*
X790040D01*
X787779Y377854D01*
X785751Y376684D01*
X785112Y376044D01*
X628650D01*
X626172Y375552D01*
X624072Y374148D01*
X588912Y338988D01*
X587508Y336888D01*
X587016Y334410D01*
Y318130D01*
X582700D01*
Y296550D01*
X604280D01*
Y318130D01*
X599964D01*
Y331728D01*
X631332Y363096D01*
X733280D01*
X733766Y361922D01*
X722262Y350418D01*
X720858Y348318D01*
X720366Y345840D01*
Y318130D01*
X716050D01*
Y296550D01*
X737630D01*
Y318130D01*
X733314D01*
Y343158D01*
X753252Y363096D01*
X785112D01*
X785751Y362456D01*
X787779Y361286D01*
X790040Y360680D01*
X792380D01*
X794641Y361286D01*
X796669Y362456D01*
X798324Y364111D01*
X799494Y366139D01*
X800100Y368400D01*
Y370740D01*
X799494Y373001D01*
X798324Y375029D01*
X796669Y376684D01*
X794641Y377854D01*
X792380Y378460D01*
D02*
G37*
G36*
X1362610Y518160D02*
X1360270D01*
X1358009Y517554D01*
X1355981Y516384D01*
X1354326Y514729D01*
X1353156Y512701D01*
X1352550Y510440D01*
Y508100D01*
X1353156Y505839D01*
X1354326Y503811D01*
X1354966Y503172D01*
Y373128D01*
X1354326Y372489D01*
X1353156Y370461D01*
X1352550Y368200D01*
Y365860D01*
X1353156Y363599D01*
X1354326Y361571D01*
X1355981Y359916D01*
X1358009Y358746D01*
X1360270Y358140D01*
X1362610D01*
X1364871Y358746D01*
X1366899Y359916D01*
X1368554Y361571D01*
X1369724Y363599D01*
X1370330Y365860D01*
Y368200D01*
X1369724Y370461D01*
X1368554Y372489D01*
X1367914Y373128D01*
Y503172D01*
X1368554Y503811D01*
X1369724Y505839D01*
X1370330Y508100D01*
Y510440D01*
X1369724Y512701D01*
X1368554Y514729D01*
X1366899Y516384D01*
X1364871Y517554D01*
X1362610Y518160D01*
D02*
G37*
G36*
X1335940D02*
X1333600D01*
X1331339Y517554D01*
X1329311Y516384D01*
X1327656Y514729D01*
X1326486Y512701D01*
X1325880Y510440D01*
Y508100D01*
X1326486Y505839D01*
X1327656Y503811D01*
X1328931Y502537D01*
Y372493D01*
X1328926Y372489D01*
X1327756Y370461D01*
X1327150Y368200D01*
Y365860D01*
X1327756Y363599D01*
X1328926Y361571D01*
X1330581Y359916D01*
X1332609Y358746D01*
X1334870Y358140D01*
X1337210D01*
X1339471Y358746D01*
X1341499Y359916D01*
X1343154Y361571D01*
X1344324Y363599D01*
X1344930Y365860D01*
Y368200D01*
X1344324Y370461D01*
X1343154Y372489D01*
X1341879Y373763D01*
Y503807D01*
X1341884Y503811D01*
X1343054Y505839D01*
X1343660Y508100D01*
Y510440D01*
X1343054Y512701D01*
X1341884Y514729D01*
X1340229Y516384D01*
X1338201Y517554D01*
X1335940Y518160D01*
D02*
G37*
G36*
X1462118Y348840D02*
X1461770D01*
Y337820D01*
X1472790D01*
Y338168D01*
X1471953Y341294D01*
X1470334Y344096D01*
X1468046Y346384D01*
X1465244Y348003D01*
X1462118Y348840D01*
D02*
G37*
G36*
X1459230D02*
X1458882D01*
X1455756Y348003D01*
X1452954Y346384D01*
X1450666Y344096D01*
X1449048Y341294D01*
X1448210Y338168D01*
Y337820D01*
X1459230D01*
Y348840D01*
D02*
G37*
G36*
X1472790Y335280D02*
X1461770D01*
Y324260D01*
X1462118D01*
X1465244Y325098D01*
X1468046Y326716D01*
X1470334Y329004D01*
X1471953Y331806D01*
X1472790Y334932D01*
Y335280D01*
D02*
G37*
G36*
X1459230D02*
X1448210D01*
Y334932D01*
X1449048Y331806D01*
X1450666Y329004D01*
X1452954Y326716D01*
X1455756Y325098D01*
X1458882Y324260D01*
X1459230D01*
Y335280D01*
D02*
G37*
G36*
X1135380Y461109D02*
X1132396Y460716D01*
X1129616Y459564D01*
X1127228Y457732D01*
X1125396Y455344D01*
X1124244Y452564D01*
X1123851Y449580D01*
X1124244Y446596D01*
X1125396Y443816D01*
X1127228Y441428D01*
X1220371Y348285D01*
Y341009D01*
X1219610Y338168D01*
Y334932D01*
X1220447Y331806D01*
X1222066Y329004D01*
X1224354Y326716D01*
X1227156Y325098D01*
X1230282Y324260D01*
X1233518D01*
X1236644Y325098D01*
X1239446Y326716D01*
X1241734Y329004D01*
X1243353Y331806D01*
X1244190Y334932D01*
Y338168D01*
X1243429Y341009D01*
Y353060D01*
X1243429Y353060D01*
X1243036Y356044D01*
X1241884Y358824D01*
X1240052Y361212D01*
X1240052Y361212D01*
X1143532Y457732D01*
X1141144Y459564D01*
X1138364Y460716D01*
X1135380Y461109D01*
D02*
G37*
G36*
X841921Y471955D02*
X838937Y471562D01*
X836157Y470410D01*
X833769Y468578D01*
X831937Y466190D01*
X830785Y463410D01*
X830392Y460426D01*
Y442049D01*
X830785Y439065D01*
X831937Y436285D01*
X833769Y433897D01*
X915571Y352095D01*
Y341009D01*
X914810Y338168D01*
Y334932D01*
X915648Y331806D01*
X917266Y329004D01*
X919554Y326716D01*
X922356Y325098D01*
X925482Y324260D01*
X928718D01*
X931844Y325098D01*
X934646Y326716D01*
X936934Y329004D01*
X938552Y331806D01*
X939390Y334932D01*
Y338168D01*
X938629Y341009D01*
Y356870D01*
X938236Y359854D01*
X937084Y362634D01*
X935252Y365022D01*
X935252Y365022D01*
X853449Y446824D01*
Y460426D01*
X853057Y463410D01*
X851905Y466190D01*
X850073Y468578D01*
X847685Y470410D01*
X844905Y471562D01*
X841921Y471955D01*
D02*
G37*
G36*
X852518Y348840D02*
X849282D01*
X846156Y348003D01*
X843354Y346384D01*
X841066Y344096D01*
X839447Y341294D01*
X838610Y338168D01*
Y334932D01*
X839447Y331806D01*
X841066Y329004D01*
X843354Y326716D01*
X846156Y325098D01*
X849282Y324260D01*
X852518D01*
X855644Y325098D01*
X858446Y326716D01*
X860734Y329004D01*
X862353Y331806D01*
X863190Y334932D01*
Y338168D01*
X862353Y341294D01*
X860734Y344096D01*
X858446Y346384D01*
X855644Y348003D01*
X852518Y348840D01*
D02*
G37*
G36*
X527201Y318130D02*
X527050D01*
Y308610D01*
X536570D01*
Y308761D01*
X535835Y311505D01*
X534414Y313965D01*
X532405Y315974D01*
X529945Y317395D01*
X527201Y318130D01*
D02*
G37*
G36*
X524510D02*
X524360D01*
X521615Y317395D01*
X519155Y315974D01*
X517146Y313965D01*
X515725Y311505D01*
X514990Y308761D01*
Y308610D01*
X524510D01*
Y318130D01*
D02*
G37*
G36*
X435760D02*
X435610D01*
Y308610D01*
X445130D01*
Y308761D01*
X444395Y311505D01*
X442974Y313965D01*
X440965Y315974D01*
X438505Y317395D01*
X435760Y318130D01*
D02*
G37*
G36*
X433070D02*
X432920D01*
X430175Y317395D01*
X427715Y315974D01*
X425706Y313965D01*
X424285Y311505D01*
X423550Y308761D01*
Y308610D01*
X433070D01*
Y318130D01*
D02*
G37*
G36*
X1362861D02*
X1360020D01*
X1357275Y317395D01*
X1354815Y315974D01*
X1352806Y313965D01*
X1351385Y311505D01*
X1350650Y308761D01*
Y305919D01*
X1351385Y303175D01*
X1352806Y300715D01*
X1354815Y298706D01*
X1357275Y297285D01*
X1360020Y296550D01*
X1362861D01*
X1365605Y297285D01*
X1368065Y298706D01*
X1370074Y300715D01*
X1371495Y303175D01*
X1372230Y305919D01*
Y308761D01*
X1371495Y311505D01*
X1370074Y313965D01*
X1368065Y315974D01*
X1365605Y317395D01*
X1362861Y318130D01*
D02*
G37*
G36*
X1347230D02*
X1325650D01*
Y296550D01*
X1347230D01*
Y318130D01*
D02*
G37*
G36*
X1105595Y474925D02*
X1103255D01*
X1100994Y474319D01*
X1098967Y473148D01*
X1097311Y471493D01*
X1096141Y469466D01*
X1095535Y467205D01*
Y466301D01*
X1052062Y422828D01*
X1050658Y420727D01*
X1050166Y418250D01*
Y316061D01*
X1050015Y315974D01*
X1048006Y313965D01*
X1046585Y311505D01*
X1045850Y308761D01*
Y305919D01*
X1046585Y303175D01*
X1048006Y300715D01*
X1050015Y298706D01*
X1052475Y297285D01*
X1055219Y296550D01*
X1058061D01*
X1060805Y297285D01*
X1063265Y298706D01*
X1065274Y300715D01*
X1066695Y303175D01*
X1067430Y305919D01*
Y308761D01*
X1066695Y311505D01*
X1065274Y313965D01*
X1063265Y315974D01*
X1063114Y316061D01*
Y415568D01*
X1104691Y457145D01*
X1105595D01*
X1107857Y457751D01*
X1109884Y458921D01*
X1111539Y460576D01*
X1112709Y462603D01*
X1113315Y464864D01*
Y467205D01*
X1112709Y469466D01*
X1111539Y471493D01*
X1109884Y473148D01*
X1107857Y474319D01*
X1105595Y474925D01*
D02*
G37*
G36*
X1074320Y473710D02*
X1071980D01*
X1069719Y473104D01*
X1067691Y471934D01*
X1066036Y470279D01*
X1064866Y468251D01*
X1064260Y465990D01*
Y465086D01*
X1027062Y427888D01*
X1025658Y425788D01*
X1025166Y423310D01*
Y318130D01*
X1020850D01*
Y296550D01*
X1042430D01*
Y318130D01*
X1038114D01*
Y420628D01*
X1073416Y455930D01*
X1074320D01*
X1076581Y456536D01*
X1078609Y457706D01*
X1080264Y459361D01*
X1081434Y461389D01*
X1082040Y463650D01*
Y465990D01*
X1081434Y468251D01*
X1080264Y470279D01*
X1078609Y471934D01*
X1076581Y473104D01*
X1074320Y473710D01*
D02*
G37*
G36*
X753260Y318130D02*
X750419D01*
X747675Y317395D01*
X745215Y315974D01*
X743206Y313965D01*
X741785Y311505D01*
X741050Y308761D01*
Y305919D01*
X741785Y303175D01*
X743206Y300715D01*
X745215Y298706D01*
X747675Y297285D01*
X750419Y296550D01*
X753260D01*
X756005Y297285D01*
X758465Y298706D01*
X760474Y300715D01*
X761895Y303175D01*
X762630Y305919D01*
Y308761D01*
X761895Y311505D01*
X760474Y313965D01*
X758465Y315974D01*
X756005Y317395D01*
X753260Y318130D01*
D02*
G37*
G36*
X619911D02*
X617070D01*
X614325Y317395D01*
X611865Y315974D01*
X609856Y313965D01*
X608435Y311505D01*
X607700Y308761D01*
Y305919D01*
X608435Y303175D01*
X609856Y300715D01*
X611865Y298706D01*
X614325Y297285D01*
X617070Y296550D01*
X619911D01*
X622655Y297285D01*
X625115Y298706D01*
X627124Y300715D01*
X628545Y303175D01*
X629280Y305919D01*
Y308761D01*
X628545Y311505D01*
X627124Y313965D01*
X625115Y315974D01*
X622655Y317395D01*
X619911Y318130D01*
D02*
G37*
G36*
X536570Y306070D02*
X527050D01*
Y296550D01*
X527201D01*
X529945Y297285D01*
X532405Y298706D01*
X534414Y300715D01*
X535835Y303175D01*
X536570Y305919D01*
Y306070D01*
D02*
G37*
G36*
X524510D02*
X514990D01*
Y305919D01*
X515725Y303175D01*
X517146Y300715D01*
X519155Y298706D01*
X521615Y297285D01*
X524360Y296550D01*
X524510D01*
Y306070D01*
D02*
G37*
G36*
X511570Y318130D02*
X489990D01*
Y296550D01*
X511570D01*
Y318130D01*
D02*
G37*
G36*
X445130Y306070D02*
X435610D01*
Y296550D01*
X435760D01*
X438505Y297285D01*
X440965Y298706D01*
X442974Y300715D01*
X444395Y303175D01*
X445130Y305919D01*
Y306070D01*
D02*
G37*
G36*
X433070D02*
X423550D01*
Y305919D01*
X424285Y303175D01*
X425706Y300715D01*
X427715Y298706D01*
X430175Y297285D01*
X432920Y296550D01*
X433070D01*
Y306070D01*
D02*
G37*
G36*
X420130Y318130D02*
X398550D01*
Y296550D01*
X420130D01*
Y318130D01*
D02*
G37*
G36*
X1729399Y332740D02*
X1725001D01*
X1720657Y332052D01*
X1716475Y330693D01*
X1712556Y328696D01*
X1708998Y326111D01*
X1705889Y323002D01*
X1703304Y319444D01*
X1701307Y315525D01*
X1699948Y311343D01*
X1699260Y306999D01*
Y302601D01*
X1699948Y298257D01*
X1701307Y294075D01*
X1703304Y290156D01*
X1705889Y286598D01*
X1708998Y283489D01*
X1712556Y280904D01*
X1716475Y278907D01*
X1720657Y277548D01*
X1725001Y276860D01*
X1729399D01*
X1733743Y277548D01*
X1737925Y278907D01*
X1741844Y280904D01*
X1745402Y283489D01*
X1748511Y286598D01*
X1751096Y290156D01*
X1753093Y294075D01*
X1754452Y298257D01*
X1755140Y302601D01*
Y306999D01*
X1754452Y311343D01*
X1753093Y315525D01*
X1751096Y319444D01*
X1748511Y323002D01*
X1745402Y326111D01*
X1741844Y328696D01*
X1737925Y330693D01*
X1733743Y332052D01*
X1729399Y332740D01*
D02*
G37*
G36*
X306999D02*
X302601D01*
X298257Y332052D01*
X294075Y330693D01*
X290156Y328696D01*
X286598Y326111D01*
X283489Y323002D01*
X280904Y319444D01*
X278907Y315525D01*
X277548Y311343D01*
X276860Y306999D01*
Y302601D01*
X277548Y298257D01*
X278907Y294075D01*
X280904Y290156D01*
X283489Y286598D01*
X286598Y283489D01*
X290156Y280904D01*
X294075Y278907D01*
X298257Y277548D01*
X302601Y276860D01*
X306999D01*
X311343Y277548D01*
X315525Y278907D01*
X319444Y280904D01*
X323002Y283489D01*
X326111Y286598D01*
X328696Y290156D01*
X330693Y294075D01*
X332052Y298257D01*
X332740Y302601D01*
Y306999D01*
X332052Y311343D01*
X330693Y315525D01*
X328696Y319444D01*
X326111Y323002D01*
X323002Y326111D01*
X319444Y328696D01*
X315525Y330693D01*
X311343Y332052D01*
X306999Y332740D01*
D02*
G37*
%LPD*%
D15*
X378460Y1154430D02*
X378660Y1154630D01*
Y1221540D02*
X378860Y1221740D01*
X1335405Y367665D02*
X1336040Y367030D01*
X1334770Y509270D02*
X1335405Y508635D01*
X440690Y980440D02*
X442076Y981826D01*
X482600Y994410D02*
Y994410D01*
X521245Y833845D02*
X524510Y830580D01*
X519231Y833845D02*
X521245D01*
X307340Y416560D02*
X307740Y416960D01*
X1226185Y669925D02*
X1226820Y670560D01*
X1050290Y669290D02*
X1050925Y669925D01*
D35*
X1199178Y715982D02*
Y727412D01*
Y715982D02*
X1200150Y715010D01*
X1187450Y739140D02*
X1199178Y727412D01*
X702957Y995033D02*
X801650Y896340D01*
X604265Y1118870D02*
X642620D01*
X604265D02*
X702957Y1020177D01*
X801650Y896340D02*
X979170D01*
X702957Y995033D02*
Y1020177D01*
X579120Y1118870D02*
X604265D01*
X1319824Y1136499D02*
X1361440Y1094883D01*
Y688521D02*
Y1094883D01*
Y367030D02*
Y509270D01*
X1056640Y418250D02*
X1104425Y466035D01*
X1056640Y307340D02*
Y418250D01*
X568960Y1129030D02*
X579120Y1118870D01*
X567690Y1130300D02*
X568960Y1129030D01*
X443462Y1119133D02*
X454629Y1130300D01*
X442076Y1117747D02*
X443462Y1119133D01*
X1143000Y1035050D02*
Y1036320D01*
X1163020Y1056340D01*
X1125220Y955040D02*
Y984250D01*
X1177310Y1036340D01*
X1209040D01*
X1051560Y690880D02*
X1052195Y691515D01*
X1226185D01*
X1226820Y692150D01*
X1335405Y367665D02*
Y508635D01*
X1163020Y1056340D02*
X1209040D01*
X442076Y981826D02*
Y1117747D01*
X454629Y1130300D02*
X567690D01*
X695230Y1171480D02*
Y1220470D01*
X642620Y1118870D02*
X695230Y1171480D01*
X1334694Y710006D02*
Y1087196D01*
Y710006D02*
X1334770Y709930D01*
X1361440Y688521D02*
X1361530Y688430D01*
X1265550Y1156340D02*
X1334694Y1087196D01*
X1050290Y648970D02*
X1228090D01*
X1050925Y669925D02*
X1226185D01*
X1062018Y623868D02*
Y627678D01*
X1003300Y565150D02*
X1062018Y623868D01*
Y627678D02*
X1062990Y628650D01*
X1125220Y739140D02*
X1187450D01*
X1108710Y755650D02*
X1125220Y739140D01*
X1031640Y423310D02*
X1073150Y464820D01*
X1031640Y307340D02*
Y423310D01*
X1209040Y1156340D02*
X1265550D01*
X750570Y369570D02*
X791210D01*
X628650D02*
X750570D01*
X726840Y345840D02*
X750570Y369570D01*
X726840Y307340D02*
Y345840D01*
X593490Y334410D02*
X628650Y369570D01*
X593490Y307340D02*
Y334410D01*
D36*
X482600Y994410D02*
X589280Y1101090D01*
X596900D01*
X482600Y872490D02*
X521245Y833845D01*
X482600Y872490D02*
Y930910D01*
X378660Y1154630D02*
Y1221540D01*
X394970Y1021080D02*
Y1103630D01*
X934720Y720090D02*
X936883D01*
X967868Y689106D01*
Y552578D02*
Y689106D01*
Y552578D02*
X988315Y532130D01*
X1037590D01*
X1089660Y584200D01*
X1338580Y638810D02*
X1388110D01*
X1283970Y584200D02*
X1338580Y638810D01*
X1089660Y584200D02*
X1283970D01*
X841921Y442049D02*
Y460426D01*
Y442049D02*
X927100Y356870D01*
Y336550D02*
Y356870D01*
X1135380Y449580D02*
X1231900Y353060D01*
Y336550D02*
Y353060D01*
D37*
X1648460Y336550D02*
X1664970Y320040D01*
X1651000Y276860D02*
X1664970Y290830D01*
Y320040D01*
X1178560Y276860D02*
X1651000D01*
X1155700Y299720D02*
Y336550D01*
Y299720D02*
X1178560Y276860D01*
D40*
X1536700Y336550D02*
X1648460D01*
D41*
X883920Y496570D02*
D03*
Y521970D02*
D03*
X1188720Y496570D02*
D03*
Y521970D02*
D03*
X777240Y469900D02*
D03*
X751840D02*
D03*
X643890D02*
D03*
X618490D02*
D03*
D42*
X883920Y547370D02*
D03*
X1188720D02*
D03*
D43*
X726440Y469900D02*
D03*
X593090D02*
D03*
D44*
X1536700Y336550D02*
D03*
X1460500D02*
D03*
X927100D02*
D03*
X850900D02*
D03*
X1155700D02*
D03*
X1231900D02*
D03*
D45*
X1336440Y307340D02*
D03*
X1031640D02*
D03*
X593490D02*
D03*
X726840D02*
D03*
X500780D02*
D03*
X409340D02*
D03*
X503860Y1221740D02*
D03*
X695230Y1220470D02*
D03*
D46*
X1361440Y307340D02*
D03*
X1056640D02*
D03*
X618490D02*
D03*
X751840D02*
D03*
X525780D02*
D03*
X434340D02*
D03*
X307340Y391560D02*
D03*
X304800Y830980D02*
D03*
Y855980D02*
D03*
Y880980D02*
D03*
Y905980D02*
D03*
Y930980D02*
D03*
Y1021080D02*
D03*
Y1046080D02*
D03*
Y1071080D02*
D03*
Y1096080D02*
D03*
Y1121080D02*
D03*
X378860Y1221740D02*
D03*
X403860D02*
D03*
X428860D02*
D03*
X453860D02*
D03*
X478860D02*
D03*
X570230Y1220470D02*
D03*
X595230D02*
D03*
X620230D02*
D03*
X645230D02*
D03*
X670230D02*
D03*
D47*
X307340Y416560D02*
D03*
X304800Y955980D02*
D03*
Y1146080D02*
D03*
D48*
X979170Y1196340D02*
D03*
Y1176340D02*
D03*
Y1156340D02*
D03*
Y1116340D02*
D03*
Y1096340D02*
D03*
Y1076340D02*
D03*
Y1056340D02*
D03*
Y1036340D02*
D03*
Y1016340D02*
D03*
Y996340D02*
D03*
Y976340D02*
D03*
Y876340D02*
D03*
Y856340D02*
D03*
Y836340D02*
D03*
Y816340D02*
D03*
Y916340D02*
D03*
Y936340D02*
D03*
Y956340D02*
D03*
Y1136340D02*
D03*
Y896340D02*
D03*
Y796340D02*
D03*
X1209040Y776340D02*
D03*
Y796340D02*
D03*
Y816340D02*
D03*
Y836340D02*
D03*
Y856340D02*
D03*
Y876340D02*
D03*
Y896340D02*
D03*
Y916340D02*
D03*
Y936340D02*
D03*
Y956340D02*
D03*
Y976340D02*
D03*
Y996340D02*
D03*
Y1016340D02*
D03*
Y1036340D02*
D03*
Y1056340D02*
D03*
Y1076340D02*
D03*
Y1096340D02*
D03*
Y1116340D02*
D03*
Y1156340D02*
D03*
Y1176340D02*
D03*
Y1136340D02*
D03*
D49*
X979170Y776340D02*
D03*
X1209040Y1196340D02*
D03*
D50*
X1609090Y1051560D02*
D03*
Y1026160D02*
D03*
Y1000760D02*
D03*
Y975360D02*
D03*
Y949960D02*
D03*
Y924560D02*
D03*
Y899160D02*
D03*
Y695960D02*
D03*
Y670560D02*
D03*
Y645160D02*
D03*
Y619760D02*
D03*
Y594360D02*
D03*
D51*
Y568960D02*
D03*
D52*
X1200150Y715010D02*
D03*
X979170Y461010D02*
D03*
X1319824Y1136499D02*
D03*
X1361530Y688430D02*
D03*
X1361440Y509270D02*
D03*
Y367030D02*
D03*
X664210Y566420D02*
D03*
X1289050Y496570D02*
D03*
X1143000Y1035050D02*
D03*
X1051560Y690880D02*
D03*
X1226820Y692150D02*
D03*
X1334770Y509270D02*
D03*
X440690Y980440D02*
D03*
X568960Y1129030D02*
D03*
X394970Y1021080D02*
D03*
X443462Y1119133D02*
D03*
X1334770Y709930D02*
D03*
X1050290Y648970D02*
D03*
X1228090D02*
D03*
X1226820Y670560D02*
D03*
X1050290Y669290D02*
D03*
X1062990Y628650D02*
D03*
X1003300Y565150D02*
D03*
X1108710Y755650D02*
D03*
X1125220Y955040D02*
D03*
X1073150Y464820D02*
D03*
X1104425Y466035D02*
D03*
X1336040Y367030D02*
D03*
X791210Y369570D02*
D03*
X841921Y460426D02*
D03*
X1135380Y449580D02*
D03*
X797560Y566420D02*
D03*
D53*
X596900Y1101090D02*
D03*
X482600Y930910D02*
D03*
X378460Y1154430D02*
D03*
X394970Y1103630D02*
D03*
X934720Y720090D02*
D03*
X482600Y994410D02*
D03*
X524510Y830580D02*
D03*
X1388110Y638810D02*
D03*
D54*
X1727200Y304800D02*
D03*
Y1219200D02*
D03*
X304800D02*
D03*
Y304800D02*
D03*
D55*
X1648460Y336550D02*
D03*
M02*
