M48
;Layer_Color=9474304
;FILE_FORMAT=4:4
METRIC,LZ
T9F00S00C5.0800
%
G90
G05
T09
G00X01783048Y00229107
M15
G01X01787895Y00230607
G01X01792347Y0023304
G01X01796227Y0023631
G01X01799379Y00240285
G01X01801678Y00244808
G01X01803033Y00249697
G01X018034Y00254
G01X018034Y0127
G01X01802893Y01275048
G01X01801393Y01279895
G01X0179896Y01284347
G01X0179569Y01288227
G01X01791715Y01291379
G01X01787192Y01293678
G01X01782302Y01295033
G01X01778Y012954
G01X00254Y012954
G01X00248952Y01294893
G01X00244105Y01293393
G01X00239653Y0129096
G01X00235773Y0128769
G01X00232621Y01283715
G01X00230322Y01279192
G01X00228967Y01274302
G01X002286Y0127
G01X002286Y00254
G01X00229107Y00248952
G01X00230607Y00244105
G01X0023304Y00239653
G01X0023631Y00235773
G01X00240285Y00232621
G01X00244808Y00230322
G01X00249697Y00228967
G01X00254Y002286
G01X01778Y002286
G01X01783048Y00229107
M16
M17
M30
