M48
;Layer_Color=9474304
;FILE_FORMAT=4:4
METRIC,LZ
;TYPE=PLATED
T1F00S00C0.7000
T2F00S00C0.7112
T3F00S00C1.1000
T4F00S00C1.1100
T5F00S00C1.2500
T6F00S00C1.3000
T7F00S00C1.7780
T8F00S00C3.1750
%
T01
X0120904Y0077634
X0097917
Y0079634
Y0081634
Y0083634
Y0085634
Y0087634
Y0089634
Y0091634
Y0093634
Y0095634
Y0097634
Y0099634
Y0101634
Y0103634
Y0105634
Y0107634
Y0109634
Y0111634
Y0113634
Y0115634
Y0117634
X0120904
Y0115634
Y0113634
Y0111634
Y0109634
Y0107634
Y0105634
Y0103634
Y0101634
Y0099634
Y0097634
Y0095634
Y0093634
Y0091634
Y0089634
Y0087634
Y0085634
Y0083634
Y0081634
Y0079634
Y0119634
X0097917
T02
X0079121Y0036957
X0133604Y0036703
X0136144
Y0050927
X0133477
X0128905Y0049657
X0122809Y0064897
X0122682Y0067056
Y0069215
X0120015Y0071501
X0133477Y0070993
X0136153Y0068843
X0138811Y0063881
X0106299Y0062865
X0105029Y0064897
Y0066929
X0105156Y0069088
X0110871Y0075565
X0093472Y0072009
X010033Y0056515
X0097917Y0046101
X0107315Y0046482
X01104425Y00466035
X0113538Y0044958
X00841921Y00460426
X0079756Y0056642
X0066421
X0039497Y0102108
Y0110363
X0037846Y0115443
X00443462Y01119133
X0056896Y0112903
X005969Y0110109
X004826Y0099441
X0044069Y0098044
X004826Y0093091
X0052451Y0083058
X0112522Y0095504
X01143Y0103505
X01319824Y01136499
T03
X0030734Y0039156
X0040934Y0030734
X0043434
X0050078
X0052578
X0059349
X0061849
X0072684
X0075184
X0103164
X0105664
X0133644
X0136144
X0030734Y0041656
X003048Y0083098
Y0085598
Y0088098
Y0090598
Y0093098
Y0095598
Y0102108
Y0104608
Y0107108
Y0109608
Y0112108
Y0114608
X0040386Y0122174
X0042886
X0045386
X0047886
X0050386
X0057023Y0122047
X0059523
X0062023
X0064523
X0067023
X0069523
X0037886Y0122174
T04
X0160909Y0056896
Y0059436
Y0061976
Y0064516
Y0067056
Y0069596
Y0089916
Y0092456
Y0094996
Y0097536
Y0100076
Y0102616
Y0105156
T05
X0088392Y0049657
Y0052197
Y0054737
X0118872
Y0052197
Y0049657
X0077724Y004699
X0075184
X0072644
X0064389
X0061849
X0059309
T06
X008509Y0033655
X009271
X011557
X012319
X014605
X015367
T07
X0164846Y0033655
T08
X003048Y003048
X017272
Y012192
X003048
M30
