G04*
G04 #@! TF.GenerationSoftware,Altium Limited,Altium Designer,22.10.1 (41)*
G04*
G04 Layer_Color=65535*
%FSLAX44Y44*%
%MOMM*%
G71*
G04*
G04 #@! TF.SameCoordinates,1C1781D4-92CB-4499-AA76-0FF4777072F7*
G04*
G04*
G04 #@! TF.FilePolarity,Positive*
G04*
G01*
G75*
%ADD10C,0.1000*%
%ADD11C,0.2000*%
%ADD12C,0.0508*%
%ADD13C,0.1016*%
%ADD14C,0.1270*%
%ADD15C,0.2540*%
D10*
X979170Y760340D02*
G03*
X979170Y761340I0J500D01*
G01*
D02*
G03*
X979170Y760340I0J-500D01*
G01*
X1209040Y1212340D02*
G03*
X1209040Y1211340I0J-500D01*
G01*
D02*
G03*
X1209040Y1212340I0J500D01*
G01*
X1422400Y283550D02*
Y411550D01*
Y283550D02*
X1574800D01*
Y411550D01*
X1422400D02*
X1574800D01*
X812800Y283550D02*
Y411550D01*
Y283550D02*
X965200D01*
Y411550D01*
X812800D02*
X965200D01*
X1624090Y559560D02*
X1659090D01*
Y1067560D01*
X1539090D02*
X1659090D01*
X1539090Y559560D02*
Y1067560D01*
Y559560D02*
X1594090D01*
X1117600Y411550D02*
X1270000D01*
Y283550D02*
Y411550D01*
X1117600Y283550D02*
X1270000D01*
X1117600D02*
Y411550D01*
D11*
X1322690Y929640D02*
X1336690D01*
X1284590Y929880D02*
X1298590D01*
X1246490D02*
X1260490D01*
X883920Y573770D02*
X914120D01*
Y470170D02*
Y573770D01*
X868420Y470170D02*
X914120D01*
X955660Y532370D02*
X969660D01*
X1035050Y437500D02*
Y451500D01*
X1188720Y573770D02*
X1218920D01*
Y470170D02*
Y573770D01*
X1173220Y470170D02*
X1218920D01*
X1333500Y467980D02*
Y481980D01*
X1255380Y521970D02*
X1269380D01*
X628650Y559420D02*
Y573420D01*
X762240Y559420D02*
Y573420D01*
X700040Y469900D02*
Y500100D01*
X803640D01*
Y454400D02*
Y500100D01*
X566690Y469900D02*
Y500100D01*
X670290D01*
Y454400D02*
Y500100D01*
X1311040Y307340D02*
Y341340D01*
X1385040D01*
Y283840D02*
Y341340D01*
X1336440Y283840D02*
X1385040D01*
X1006240Y307340D02*
Y341340D01*
X1080240D01*
Y283840D02*
Y341340D01*
X1031640Y283840D02*
X1080240D01*
X568090Y307340D02*
Y341340D01*
X642090D01*
Y283840D02*
Y341340D01*
X593490Y283840D02*
X642090D01*
X701440Y307340D02*
Y341340D01*
X775440D01*
Y283840D02*
Y341340D01*
X726840Y283840D02*
X775440D01*
X500780D02*
X549380D01*
Y341340D01*
X475380D02*
X549380D01*
X475380Y307340D02*
Y341340D01*
X409340Y283840D02*
X457940D01*
Y341340D01*
X383940D02*
X457940D01*
X383940Y307340D02*
Y341340D01*
X283840Y367960D02*
Y416560D01*
Y367960D02*
X341340D01*
Y441960D01*
X307340D02*
X341340D01*
X304800Y980480D02*
X338800D01*
Y806480D02*
Y980480D01*
X281300Y806480D02*
X338800D01*
X281300D02*
Y955980D01*
X304800Y1170580D02*
X338800D01*
Y996580D02*
Y1170580D01*
X281300Y996580D02*
X338800D01*
X281300D02*
Y1146080D01*
X528360Y1187740D02*
Y1221740D01*
X354360Y1187740D02*
X528360D01*
X354360D02*
Y1245240D01*
X503860D01*
X719730Y1186470D02*
Y1220470D01*
X545730Y1186470D02*
X719730D01*
X545730D02*
Y1243970D01*
X695230D01*
X968170Y766340D02*
X990170D01*
X968170D02*
Y1206340D01*
X990170D01*
Y766340D02*
Y1206340D01*
X1198040D02*
X1220040D01*
Y766340D02*
Y1206340D01*
X1198040Y766340D02*
X1220040D01*
X1198040D02*
Y1206340D01*
D12*
X1015583Y458682D02*
X1016429D01*
X1016006D01*
Y461221D01*
X1015583Y460798D01*
X1017699D02*
X1018122Y461221D01*
X1018969D01*
X1019392Y460798D01*
Y459105D01*
X1018969Y458682D01*
X1018122D01*
X1017699Y459105D01*
Y460798D01*
X1020238Y458682D02*
Y461221D01*
Y459528D02*
X1021508Y460375D01*
X1020238Y459528D02*
X1021508Y458682D01*
X1022777Y458259D02*
X1024470D01*
X1025316Y461221D02*
X1027009D01*
X1026163D01*
Y458682D01*
X1027856Y461221D02*
Y458682D01*
Y459952D01*
X1029548D01*
Y461221D01*
Y458682D01*
X1031664D02*
X1030818D01*
X1030395Y459105D01*
Y459952D01*
X1030818Y460375D01*
X1031664D01*
X1032088Y459952D01*
Y459528D01*
X1030395D01*
X1032934Y460375D02*
Y458682D01*
Y459528D01*
X1033357Y459952D01*
X1033780Y460375D01*
X1034204D01*
X1035473Y458682D02*
Y460375D01*
X1035896D01*
X1036320Y459952D01*
Y458682D01*
Y459952D01*
X1036743Y460375D01*
X1037166Y459952D01*
Y458682D01*
X1038012Y458259D02*
X1039705D01*
X1040552Y461221D02*
Y458682D01*
Y459952D01*
X1042244D01*
Y461221D01*
Y458682D01*
X1043514D02*
X1044360D01*
X1044784Y459105D01*
Y459952D01*
X1044360Y460375D01*
X1043514D01*
X1043091Y459952D01*
Y459105D01*
X1043514Y458682D01*
X1046053Y460798D02*
Y460375D01*
X1045630D01*
X1046476D01*
X1046053D01*
Y459105D01*
X1046476Y458682D01*
X1049016D02*
X1048169D01*
X1047746Y459105D01*
Y459952D01*
X1048169Y460375D01*
X1049016D01*
X1049439Y459952D01*
Y459528D01*
X1047746D01*
X1050285Y458682D02*
Y460375D01*
X1051555D01*
X1051978Y459952D01*
Y458682D01*
X1054517Y461221D02*
Y458682D01*
X1053248D01*
X1052824Y459105D01*
Y459952D01*
X1053248Y460375D01*
X1054517D01*
X1276562Y550326D02*
Y549479D01*
Y549903D01*
X1279101D01*
X1278678Y550326D01*
Y548210D02*
X1279101Y547787D01*
Y546940D01*
X1278678Y546517D01*
X1276985D01*
X1276562Y546940D01*
Y547787D01*
X1276985Y548210D01*
X1278678D01*
X1276562Y545671D02*
X1279101D01*
X1277408D02*
X1278255Y544401D01*
X1277408Y545671D02*
X1276562Y544401D01*
X1279101Y539323D02*
Y540169D01*
X1278678Y540592D01*
X1276985D01*
X1276562Y540169D01*
Y539323D01*
X1276985Y538899D01*
X1278678D01*
X1279101Y539323D01*
Y538053D02*
X1276562D01*
X1277832D01*
X1278255Y537630D01*
Y536783D01*
X1277832Y536360D01*
X1276562D01*
Y535514D02*
X1278255D01*
Y535091D01*
X1277832Y534668D01*
X1276562D01*
X1277832D01*
X1278255Y534244D01*
X1277832Y533821D01*
X1276562D01*
Y532975D02*
Y531705D01*
X1276985Y531282D01*
X1277408Y531705D01*
Y532552D01*
X1277832Y532975D01*
X1278255Y532552D01*
Y531282D01*
X1276139Y530436D02*
Y528743D01*
X1279101Y527896D02*
X1276562D01*
X1277832D01*
Y526204D01*
X1279101D01*
X1276562D01*
Y524088D02*
Y524934D01*
X1276985Y525357D01*
X1277832D01*
X1278255Y524934D01*
Y524088D01*
X1277832Y523664D01*
X1277408D01*
Y525357D01*
X1278255Y522395D02*
Y521548D01*
X1277832Y521125D01*
X1276562D01*
Y522395D01*
X1276985Y522818D01*
X1277408Y522395D01*
Y521125D01*
X1278678Y519856D02*
X1278255D01*
Y520279D01*
Y519432D01*
Y519856D01*
X1276985D01*
X1276562Y519432D01*
Y516893D02*
Y517740D01*
X1276985Y518163D01*
X1277832D01*
X1278255Y517740D01*
Y516893D01*
X1277832Y516470D01*
X1277408D01*
Y518163D01*
X1279101Y513931D02*
X1276562D01*
Y515201D01*
X1276985Y515624D01*
X1277832D01*
X1278255Y515201D01*
Y513931D01*
X1276139Y513084D02*
Y511392D01*
X1279101Y510545D02*
X1276562D01*
Y509276D01*
X1276985Y508853D01*
X1277408D01*
X1277832Y509276D01*
Y510545D01*
Y509276D01*
X1278255Y508853D01*
X1278678D01*
X1279101Y509276D01*
Y510545D01*
X1276562Y506736D02*
Y507583D01*
X1276985Y508006D01*
X1277832D01*
X1278255Y507583D01*
Y506736D01*
X1277832Y506313D01*
X1277408D01*
Y508006D01*
X1279101Y503774D02*
X1276562D01*
Y505044D01*
X1276985Y505467D01*
X1277832D01*
X1278255Y505044D01*
Y503774D01*
D13*
X1285679Y451274D02*
X1287372D01*
X1286526D01*
Y456352D01*
X1285679Y455506D01*
X1289911D02*
X1290758Y456352D01*
X1292451D01*
X1293297Y455506D01*
Y452120D01*
X1292451Y451274D01*
X1290758D01*
X1289911Y452120D01*
Y455506D01*
X1294990Y451274D02*
Y456352D01*
Y452967D02*
X1297529Y454660D01*
X1294990Y452967D02*
X1297529Y451274D01*
X1300068Y450428D02*
X1303454D01*
X1305146Y456352D02*
X1308532D01*
X1306839D01*
Y451274D01*
X1310225Y456352D02*
Y451274D01*
Y453813D01*
X1311071Y454660D01*
X1312764D01*
X1313610Y453813D01*
Y451274D01*
X1317842D02*
X1316149D01*
X1315303Y452120D01*
Y453813D01*
X1316149Y454660D01*
X1317842D01*
X1318689Y453813D01*
Y452967D01*
X1315303D01*
X1320381Y454660D02*
Y451274D01*
Y452967D01*
X1321228Y453813D01*
X1322074Y454660D01*
X1322921D01*
X1325460Y451274D02*
Y454660D01*
X1326306D01*
X1327153Y453813D01*
Y451274D01*
Y453813D01*
X1327999Y454660D01*
X1328845Y453813D01*
Y451274D01*
X1330538Y450428D02*
X1333924D01*
X1335616Y456352D02*
Y451274D01*
Y453813D01*
X1339002D01*
Y456352D01*
Y451274D01*
X1343234D02*
X1341541D01*
X1340695Y452120D01*
Y453813D01*
X1341541Y454660D01*
X1343234D01*
X1344080Y453813D01*
Y452967D01*
X1340695D01*
X1346620Y454660D02*
X1348312D01*
X1349159Y453813D01*
Y451274D01*
X1346620D01*
X1345773Y452120D01*
X1346620Y452967D01*
X1349159D01*
X1351698Y455506D02*
Y454660D01*
X1350851D01*
X1352544D01*
X1351698D01*
Y452120D01*
X1352544Y451274D01*
X1357623D02*
X1355930D01*
X1355083Y452120D01*
Y453813D01*
X1355930Y454660D01*
X1357623D01*
X1358469Y453813D01*
Y452967D01*
X1355083D01*
X1363547Y456352D02*
Y451274D01*
X1361008D01*
X1360162Y452120D01*
Y453813D01*
X1361008Y454660D01*
X1363547D01*
X1365240Y450428D02*
X1368626D01*
X1370318Y456352D02*
Y451274D01*
X1372858D01*
X1373704Y452120D01*
Y452967D01*
X1372858Y453813D01*
X1370318D01*
X1372858D01*
X1373704Y454660D01*
Y455506D01*
X1372858Y456352D01*
X1370318D01*
X1377936Y451274D02*
X1376243D01*
X1375397Y452120D01*
Y453813D01*
X1376243Y454660D01*
X1377936D01*
X1378782Y453813D01*
Y452967D01*
X1375397D01*
X1383861Y456352D02*
Y451274D01*
X1381322D01*
X1380475Y452120D01*
Y453813D01*
X1381322Y454660D01*
X1383861D01*
X282797Y453389D02*
X286182D01*
Y452543D01*
X282797Y449157D01*
Y448311D01*
X286182D01*
X287875Y450850D02*
X291261D01*
X292953Y448311D02*
Y451696D01*
X294646Y453389D01*
X296339Y451696D01*
Y448311D01*
Y450850D01*
X292953D01*
X298032Y451696D02*
X301417Y448311D01*
X299725Y450004D01*
X301417Y451696D01*
X298032Y448311D01*
X303110D02*
X304803D01*
X303957D01*
Y451696D01*
X303110D01*
X307342Y448311D02*
X309881D01*
X310728Y449157D01*
X309881Y450004D01*
X308188D01*
X307342Y450850D01*
X308188Y451696D01*
X310728D01*
X320884Y452543D02*
X320038Y453389D01*
X318345D01*
X317499Y452543D01*
Y451696D01*
X318345Y450850D01*
X320038D01*
X320884Y450004D01*
Y449157D01*
X320038Y448311D01*
X318345D01*
X317499Y449157D01*
X322577Y451696D02*
Y449157D01*
X323424Y448311D01*
X324270Y449157D01*
X325116Y448311D01*
X325963Y449157D01*
Y451696D01*
X327655Y448311D02*
X329348D01*
X328502D01*
Y451696D01*
X327655D01*
X332734Y452543D02*
Y451696D01*
X331887D01*
X333580D01*
X332734D01*
Y449157D01*
X333580Y448311D01*
X339505Y451696D02*
X336966D01*
X336119Y450850D01*
Y449157D01*
X336966Y448311D01*
X339505D01*
X341198Y453389D02*
Y448311D01*
Y450850D01*
X342044Y451696D01*
X343737D01*
X344583Y450850D01*
Y448311D01*
X392017Y278129D02*
Y277283D01*
X393709Y275590D01*
X395402Y277283D01*
Y278129D01*
X393709Y275590D02*
Y273051D01*
X397095Y275590D02*
X400481D01*
X402173Y273051D02*
Y276436D01*
X403866Y278129D01*
X405559Y276436D01*
Y273051D01*
Y275590D01*
X402173D01*
X407252Y276436D02*
X410637Y273051D01*
X408945Y274744D01*
X410637Y276436D01*
X407252Y273051D01*
X412330D02*
X414023D01*
X413176D01*
Y276436D01*
X412330D01*
X416562Y273051D02*
X419101D01*
X419948Y273897D01*
X419101Y274744D01*
X417408D01*
X416562Y275590D01*
X417408Y276436D01*
X419948D01*
X430104Y277283D02*
X429258Y278129D01*
X427565D01*
X426719Y277283D01*
Y276436D01*
X427565Y275590D01*
X429258D01*
X430104Y274744D01*
Y273897D01*
X429258Y273051D01*
X427565D01*
X426719Y273897D01*
X431797Y276436D02*
Y273897D01*
X432644Y273051D01*
X433490Y273897D01*
X434336Y273051D01*
X435183Y273897D01*
Y276436D01*
X436875Y273051D02*
X438568D01*
X437722D01*
Y276436D01*
X436875D01*
X441954Y277283D02*
Y276436D01*
X441107D01*
X442800D01*
X441954D01*
Y273897D01*
X442800Y273051D01*
X448725Y276436D02*
X446186D01*
X445339Y275590D01*
Y273897D01*
X446186Y273051D01*
X448725D01*
X450418Y278129D02*
Y273051D01*
Y275590D01*
X451264Y276436D01*
X452957D01*
X453803Y275590D01*
Y273051D01*
X483457Y278129D02*
X486842Y273051D01*
Y278129D02*
X483457Y273051D01*
X488535Y275590D02*
X491921D01*
X493613Y273051D02*
Y276436D01*
X495306Y278129D01*
X496999Y276436D01*
Y273051D01*
Y275590D01*
X493613D01*
X498692Y276436D02*
X502077Y273051D01*
X500384Y274744D01*
X502077Y276436D01*
X498692Y273051D01*
X503770D02*
X505463D01*
X504617D01*
Y276436D01*
X503770D01*
X508002Y273051D02*
X510541D01*
X511388Y273897D01*
X510541Y274744D01*
X508848D01*
X508002Y275590D01*
X508848Y276436D01*
X511388D01*
X521544Y277283D02*
X520698Y278129D01*
X519005D01*
X518159Y277283D01*
Y276436D01*
X519005Y275590D01*
X520698D01*
X521544Y274744D01*
Y273897D01*
X520698Y273051D01*
X519005D01*
X518159Y273897D01*
X523237Y276436D02*
Y273897D01*
X524084Y273051D01*
X524930Y273897D01*
X525776Y273051D01*
X526623Y273897D01*
Y276436D01*
X528316Y273051D02*
X530008D01*
X529162D01*
Y276436D01*
X528316D01*
X533394Y277283D02*
Y276436D01*
X532547D01*
X534240D01*
X533394D01*
Y273897D01*
X534240Y273051D01*
X540165Y276436D02*
X537626D01*
X536779Y275590D01*
Y273897D01*
X537626Y273051D01*
X540165D01*
X541858Y278129D02*
Y273051D01*
Y275590D01*
X542704Y276436D01*
X544397D01*
X545243Y275590D01*
Y273051D01*
X1004583Y278129D02*
Y273051D01*
Y275590D01*
X1007969D01*
Y278129D01*
Y273051D01*
X1010508D02*
X1012201D01*
X1013047Y273897D01*
Y275590D01*
X1012201Y276436D01*
X1010508D01*
X1009661Y275590D01*
Y273897D01*
X1010508Y273051D01*
X1015586Y277283D02*
Y276436D01*
X1014740D01*
X1016433D01*
X1015586D01*
Y273897D01*
X1016433Y273051D01*
X1021511D02*
X1019818D01*
X1018972Y273897D01*
Y275590D01*
X1019818Y276436D01*
X1021511D01*
X1022357Y275590D01*
Y274744D01*
X1018972D01*
X1024050Y273051D02*
Y276436D01*
X1026589D01*
X1027436Y275590D01*
Y273051D01*
X1032514Y278129D02*
Y273051D01*
X1029975D01*
X1029128Y273897D01*
Y275590D01*
X1029975Y276436D01*
X1032514D01*
X1039285Y278129D02*
X1042671D01*
X1040978D01*
Y273051D01*
X1044364Y278129D02*
Y273051D01*
Y275590D01*
X1045210Y276436D01*
X1046903D01*
X1047749Y275590D01*
Y273051D01*
X1051981D02*
X1050288D01*
X1049442Y273897D01*
Y275590D01*
X1050288Y276436D01*
X1051981D01*
X1052828Y275590D01*
Y274744D01*
X1049442D01*
X1054520Y276436D02*
Y273051D01*
Y274744D01*
X1055367Y275590D01*
X1056213Y276436D01*
X1057059D01*
X1059599Y273051D02*
Y276436D01*
X1060445D01*
X1061291Y275590D01*
Y273051D01*
Y275590D01*
X1062138Y276436D01*
X1062984Y275590D01*
Y273051D01*
X1064677D02*
X1066370D01*
X1065523D01*
Y276436D01*
X1064677D01*
X1068909Y273051D02*
X1071448D01*
X1072294Y273897D01*
X1071448Y274744D01*
X1069755D01*
X1068909Y275590D01*
X1069755Y276436D01*
X1072294D01*
X1074834Y277283D02*
Y276436D01*
X1073987D01*
X1075680D01*
X1074834D01*
Y273897D01*
X1075680Y273051D01*
X1079066D02*
X1080759D01*
X1081605Y273897D01*
Y275590D01*
X1080759Y276436D01*
X1079066D01*
X1078219Y275590D01*
Y273897D01*
X1079066Y273051D01*
X1083298Y276436D02*
Y273051D01*
Y274744D01*
X1084144Y275590D01*
X1084990Y276436D01*
X1085837D01*
X852180Y584622D02*
Y579544D01*
Y582083D01*
X855566D01*
Y584622D01*
Y579544D01*
X858105D02*
X859798D01*
X860644Y580390D01*
Y582083D01*
X859798Y582930D01*
X858105D01*
X857259Y582083D01*
Y580390D01*
X858105Y579544D01*
X863183Y583776D02*
Y582930D01*
X862337D01*
X864030D01*
X863183D01*
Y580390D01*
X864030Y579544D01*
X869108D02*
X867415D01*
X866569Y580390D01*
Y582083D01*
X867415Y582930D01*
X869108D01*
X869955Y582083D01*
Y581237D01*
X866569D01*
X871647Y579544D02*
Y582930D01*
X874186D01*
X875033Y582083D01*
Y579544D01*
X880111Y584622D02*
Y579544D01*
X877572D01*
X876726Y580390D01*
Y582083D01*
X877572Y582930D01*
X880111D01*
X881804Y578698D02*
X885190D01*
X886882Y579544D02*
Y584622D01*
X888575Y582930D01*
X890268Y584622D01*
Y579544D01*
X894500Y584622D02*
X892807D01*
X891961Y583776D01*
Y580390D01*
X892807Y579544D01*
X894500D01*
X895346Y580390D01*
Y583776D01*
X894500Y584622D01*
X900425Y583776D02*
X899578Y584622D01*
X897886D01*
X897039Y583776D01*
Y582930D01*
X897886Y582083D01*
X899578D01*
X900425Y581237D01*
Y580390D01*
X899578Y579544D01*
X897886D01*
X897039Y580390D01*
X905503Y584622D02*
X902117D01*
Y582083D01*
X903810D01*
X902117D01*
Y579544D01*
X910581Y584622D02*
X907196D01*
Y579544D01*
X910581D01*
X907196Y582083D02*
X908889D01*
X912274Y584622D02*
X915660D01*
X913967D01*
Y579544D01*
X1297957Y384809D02*
Y379731D01*
Y382270D01*
X1301342D01*
Y384809D01*
Y379731D01*
X1305574D02*
X1303881D01*
X1303035Y380577D01*
Y382270D01*
X1303881Y383116D01*
X1305574D01*
X1306420Y382270D01*
Y381424D01*
X1303035D01*
X1308960Y383116D02*
X1310652D01*
X1311499Y382270D01*
Y379731D01*
X1308960D01*
X1308113Y380577D01*
X1308960Y381424D01*
X1311499D01*
X1314038Y383963D02*
Y383116D01*
X1313192D01*
X1314884D01*
X1314038D01*
Y380577D01*
X1314884Y379731D01*
X1319963D02*
X1318270D01*
X1317424Y380577D01*
Y382270D01*
X1318270Y383116D01*
X1319963D01*
X1320809Y382270D01*
Y381424D01*
X1317424D01*
X1325887Y384809D02*
Y379731D01*
X1323348D01*
X1322502Y380577D01*
Y382270D01*
X1323348Y383116D01*
X1325887D01*
X1332659Y384809D02*
Y379731D01*
X1335198D01*
X1336044Y380577D01*
Y381424D01*
X1335198Y382270D01*
X1332659D01*
X1335198D01*
X1336044Y383116D01*
Y383963D01*
X1335198Y384809D01*
X1332659D01*
X1340276Y379731D02*
X1338583D01*
X1337737Y380577D01*
Y382270D01*
X1338583Y383116D01*
X1340276D01*
X1341122Y382270D01*
Y381424D01*
X1337737D01*
X1346201Y384809D02*
Y379731D01*
X1343662D01*
X1342815Y380577D01*
Y382270D01*
X1343662Y383116D01*
X1346201D01*
X1352972Y384809D02*
X1356358D01*
X1354665D01*
Y379731D01*
X1358050Y384809D02*
Y379731D01*
Y382270D01*
X1358897Y383116D01*
X1360589D01*
X1361436Y382270D01*
Y379731D01*
X1365668D02*
X1363975D01*
X1363129Y380577D01*
Y382270D01*
X1363975Y383116D01*
X1365668D01*
X1366514Y382270D01*
Y381424D01*
X1363129D01*
X1368207Y383116D02*
Y379731D01*
Y381424D01*
X1369053Y382270D01*
X1369900Y383116D01*
X1370746D01*
X1373285Y379731D02*
Y383116D01*
X1374132D01*
X1374978Y382270D01*
Y379731D01*
Y382270D01*
X1375824Y383116D01*
X1376671Y382270D01*
Y379731D01*
X1378364D02*
X1380056D01*
X1379210D01*
Y383116D01*
X1378364D01*
X1382596Y379731D02*
X1385135D01*
X1385981Y380577D01*
X1385135Y381424D01*
X1383442D01*
X1382596Y382270D01*
X1383442Y383116D01*
X1385981D01*
X1388520Y383963D02*
Y383116D01*
X1387674D01*
X1389367D01*
X1388520D01*
Y380577D01*
X1389367Y379731D01*
X1392752D02*
X1394445D01*
X1395291Y380577D01*
Y382270D01*
X1394445Y383116D01*
X1392752D01*
X1391906Y382270D01*
Y380577D01*
X1392752Y379731D01*
X1396984Y383116D02*
Y379731D01*
Y381424D01*
X1397831Y382270D01*
X1398677Y383116D01*
X1399523D01*
X1229782Y539736D02*
X1224704D01*
X1227243D01*
Y536351D01*
X1229782D01*
X1224704D01*
Y532119D02*
Y533812D01*
X1225550Y534658D01*
X1227243D01*
X1228090Y533812D01*
Y532119D01*
X1227243Y531272D01*
X1226397D01*
Y534658D01*
X1228090Y528733D02*
Y527040D01*
X1227243Y526194D01*
X1224704D01*
Y528733D01*
X1225550Y529580D01*
X1226397Y528733D01*
Y526194D01*
X1228936Y523655D02*
X1228090D01*
Y524501D01*
Y522808D01*
Y523655D01*
X1225550D01*
X1224704Y522808D01*
Y517730D02*
Y519423D01*
X1225550Y520269D01*
X1227243D01*
X1228090Y519423D01*
Y517730D01*
X1227243Y516884D01*
X1226397D01*
Y520269D01*
X1229782Y511805D02*
X1224704D01*
Y514345D01*
X1225550Y515191D01*
X1227243D01*
X1228090Y514345D01*
Y511805D01*
X1223858Y510113D02*
Y506727D01*
X1229782Y505034D02*
X1224704D01*
Y502495D01*
X1225550Y501649D01*
X1226397D01*
X1227243Y502495D01*
Y505034D01*
Y502495D01*
X1228090Y501649D01*
X1228936D01*
X1229782Y502495D01*
Y505034D01*
X1224704Y497417D02*
Y499109D01*
X1225550Y499956D01*
X1227243D01*
X1228090Y499109D01*
Y497417D01*
X1227243Y496570D01*
X1226397D01*
Y499956D01*
X1229782Y491492D02*
X1224704D01*
Y494031D01*
X1225550Y494878D01*
X1227243D01*
X1228090Y494031D01*
Y491492D01*
X1223858Y489799D02*
Y486414D01*
X1224704Y484721D02*
X1229782D01*
X1228090Y483028D01*
X1229782Y481335D01*
X1224704D01*
X1229782Y477103D02*
Y478796D01*
X1228936Y479643D01*
X1225550D01*
X1224704Y478796D01*
Y477103D01*
X1225550Y476257D01*
X1228936D01*
X1229782Y477103D01*
X1228936Y471179D02*
X1229782Y472025D01*
Y473718D01*
X1228936Y474564D01*
X1228090D01*
X1227243Y473718D01*
Y472025D01*
X1226397Y471179D01*
X1225550D01*
X1224704Y472025D01*
Y473718D01*
X1225550Y474564D01*
X1229782Y466100D02*
Y469486D01*
X1227243D01*
Y467793D01*
Y469486D01*
X1224704D01*
X1229782Y461022D02*
Y464408D01*
X1224704D01*
Y461022D01*
X1227243Y464408D02*
Y462715D01*
X1229782Y459329D02*
Y455944D01*
Y457636D01*
X1224704D01*
X611302Y512232D02*
X607916D01*
Y509693D01*
X609609D01*
X607916D01*
Y507154D01*
X613841Y510540D02*
X615534D01*
X616380Y509693D01*
Y507154D01*
X613841D01*
X612995Y508000D01*
X613841Y508847D01*
X616380D01*
X618073Y507154D02*
Y510540D01*
X620612D01*
X621459Y509693D01*
Y507154D01*
X623151Y506308D02*
X626537D01*
X631615Y507154D02*
X628230D01*
X631615Y510540D01*
Y511386D01*
X630769Y512232D01*
X629076D01*
X628230Y511386D01*
X633308Y506308D02*
X636694D01*
X638386Y507154D02*
Y512232D01*
X640079Y510540D01*
X641772Y512232D01*
Y507154D01*
X646004Y512232D02*
X644311D01*
X643465Y511386D01*
Y508000D01*
X644311Y507154D01*
X646004D01*
X646850Y508000D01*
Y511386D01*
X646004Y512232D01*
X651929Y511386D02*
X651082Y512232D01*
X649389D01*
X648543Y511386D01*
Y510540D01*
X649389Y509693D01*
X651082D01*
X651929Y508847D01*
Y508000D01*
X651082Y507154D01*
X649389D01*
X648543Y508000D01*
X657007Y512232D02*
X653622D01*
Y509693D01*
X655314D01*
X653622D01*
Y507154D01*
X662085Y512232D02*
X658700D01*
Y507154D01*
X662085D01*
X658700Y509693D02*
X660393D01*
X663778Y512232D02*
X667164D01*
X665471D01*
Y507154D01*
X743805Y513502D02*
X740419D01*
Y510963D01*
X742112D01*
X740419D01*
Y508424D01*
X746344Y511810D02*
X748037D01*
X748883Y510963D01*
Y508424D01*
X746344D01*
X745498Y509270D01*
X746344Y510117D01*
X748883D01*
X750576Y508424D02*
Y511810D01*
X753115D01*
X753962Y510963D01*
Y508424D01*
X755655Y507578D02*
X759040D01*
X760733Y508424D02*
X762426D01*
X761579D01*
Y513502D01*
X760733Y512656D01*
X764965Y507578D02*
X768350D01*
X770043Y508424D02*
Y513502D01*
X771736Y511810D01*
X773429Y513502D01*
Y508424D01*
X777661Y513502D02*
X775968D01*
X775122Y512656D01*
Y509270D01*
X775968Y508424D01*
X777661D01*
X778507Y509270D01*
Y512656D01*
X777661Y513502D01*
X783586Y512656D02*
X782739Y513502D01*
X781046D01*
X780200Y512656D01*
Y511810D01*
X781046Y510963D01*
X782739D01*
X783586Y510117D01*
Y509270D01*
X782739Y508424D01*
X781046D01*
X780200Y509270D01*
X788664Y513502D02*
X785278D01*
Y510963D01*
X786971D01*
X785278D01*
Y508424D01*
X793742Y513502D02*
X790357D01*
Y508424D01*
X793742D01*
X790357Y510963D02*
X792049D01*
X795435Y513502D02*
X798820D01*
X797128D01*
Y508424D01*
X598596Y278129D02*
X595210D01*
Y275590D01*
X596903D01*
X595210D01*
Y273051D01*
X601135Y276436D02*
X602828D01*
X603674Y275590D01*
Y273051D01*
X601135D01*
X600289Y273897D01*
X601135Y274744D01*
X603674D01*
X605367Y273051D02*
Y276436D01*
X607906D01*
X608753Y275590D01*
Y273051D01*
X618909D02*
X615524D01*
X618909Y276436D01*
Y277283D01*
X618063Y278129D01*
X616370D01*
X615524Y277283D01*
X732793Y278129D02*
X729407D01*
Y275590D01*
X731100D01*
X729407D01*
Y273051D01*
X735332Y276436D02*
X737025D01*
X737871Y275590D01*
Y273051D01*
X735332D01*
X734485Y273897D01*
X735332Y274744D01*
X737871D01*
X739564Y273051D02*
Y276436D01*
X742103D01*
X742949Y275590D01*
Y273051D01*
X749720D02*
X751413D01*
X750567D01*
Y278129D01*
X749720Y277283D01*
X1233594Y960955D02*
Y959262D01*
Y960108D01*
X1238672D01*
X1237826Y960955D01*
Y956723D02*
X1238672Y955876D01*
Y954184D01*
X1237826Y953337D01*
X1234440D01*
X1233594Y954184D01*
Y955876D01*
X1234440Y956723D01*
X1237826D01*
X1233594Y951645D02*
X1238672D01*
X1235287D02*
X1236980Y949105D01*
X1235287Y951645D02*
X1233594Y949105D01*
X1238672Y938949D02*
Y940641D01*
X1237826Y941488D01*
X1234440D01*
X1233594Y940641D01*
Y938949D01*
X1234440Y938102D01*
X1237826D01*
X1238672Y938949D01*
Y936410D02*
X1233594D01*
X1236133D01*
X1236980Y935563D01*
Y933870D01*
X1236133Y933024D01*
X1233594D01*
Y931331D02*
X1236980D01*
Y930485D01*
X1236133Y929638D01*
X1233594D01*
X1236133D01*
X1236980Y928792D01*
X1236133Y927945D01*
X1233594D01*
Y926253D02*
Y923714D01*
X1234440Y922867D01*
X1235287Y923714D01*
Y925406D01*
X1236133Y926253D01*
X1236980Y925406D01*
Y922867D01*
X1232748Y921174D02*
Y917789D01*
X1238672Y916096D02*
Y912710D01*
X1237826D01*
X1234440Y916096D01*
X1233594D01*
Y912710D01*
X1236133Y911018D02*
Y907632D01*
X1233594Y905939D02*
X1236980D01*
X1238672Y904247D01*
X1236980Y902554D01*
X1233594D01*
X1236133D01*
Y905939D01*
X1236980Y900861D02*
X1233594Y897475D01*
X1235287Y899168D01*
X1236980Y897475D01*
X1233594Y900861D01*
Y895783D02*
Y894090D01*
Y894936D01*
X1236980D01*
Y895783D01*
X1233594Y891551D02*
Y889012D01*
X1234440Y888165D01*
X1235287Y889012D01*
Y890704D01*
X1236133Y891551D01*
X1236980Y890704D01*
Y888165D01*
X1271694Y962225D02*
Y960532D01*
Y961378D01*
X1276772D01*
X1275926Y962225D01*
Y957993D02*
X1276772Y957146D01*
Y955454D01*
X1275926Y954607D01*
X1272540D01*
X1271694Y955454D01*
Y957146D01*
X1272540Y957993D01*
X1275926D01*
X1271694Y952915D02*
X1276772D01*
X1273387D02*
X1275080Y950375D01*
X1273387Y952915D02*
X1271694Y950375D01*
X1276772Y940219D02*
Y941911D01*
X1275926Y942758D01*
X1272540D01*
X1271694Y941911D01*
Y940219D01*
X1272540Y939372D01*
X1275926D01*
X1276772Y940219D01*
Y937680D02*
X1271694D01*
X1274233D01*
X1275080Y936833D01*
Y935140D01*
X1274233Y934294D01*
X1271694D01*
Y932601D02*
X1275080D01*
Y931755D01*
X1274233Y930908D01*
X1271694D01*
X1274233D01*
X1275080Y930062D01*
X1274233Y929215D01*
X1271694D01*
Y927523D02*
Y924984D01*
X1272540Y924137D01*
X1273387Y924984D01*
Y926676D01*
X1274233Y927523D01*
X1275080Y926676D01*
Y924137D01*
X1270848Y922444D02*
Y919059D01*
X1276772Y917366D02*
X1275926D01*
X1274233Y915673D01*
X1275926Y913980D01*
X1276772D01*
X1274233Y915673D02*
X1271694D01*
X1274233Y912288D02*
Y908902D01*
X1271694Y907209D02*
X1275080D01*
X1276772Y905517D01*
X1275080Y903824D01*
X1271694D01*
X1274233D01*
Y907209D01*
X1275080Y902131D02*
X1271694Y898745D01*
X1273387Y900438D01*
X1275080Y898745D01*
X1271694Y902131D01*
Y897053D02*
Y895360D01*
Y896206D01*
X1275080D01*
Y897053D01*
X1271694Y892821D02*
Y890282D01*
X1272540Y889435D01*
X1273387Y890282D01*
Y891974D01*
X1274233Y892821D01*
X1275080Y891974D01*
Y889435D01*
X1309794Y962225D02*
Y960532D01*
Y961378D01*
X1314872D01*
X1314026Y962225D01*
Y957993D02*
X1314872Y957146D01*
Y955454D01*
X1314026Y954607D01*
X1310640D01*
X1309794Y955454D01*
Y957146D01*
X1310640Y957993D01*
X1314026D01*
X1309794Y952915D02*
X1314872D01*
X1311487D02*
X1313180Y950375D01*
X1311487Y952915D02*
X1309794Y950375D01*
X1314872Y940219D02*
Y941911D01*
X1314026Y942758D01*
X1310640D01*
X1309794Y941911D01*
Y940219D01*
X1310640Y939372D01*
X1314026D01*
X1314872Y940219D01*
Y937680D02*
X1309794D01*
X1312333D01*
X1313180Y936833D01*
Y935140D01*
X1312333Y934294D01*
X1309794D01*
Y932601D02*
X1313180D01*
Y931755D01*
X1312333Y930908D01*
X1309794D01*
X1312333D01*
X1313180Y930062D01*
X1312333Y929215D01*
X1309794D01*
Y927523D02*
Y924984D01*
X1310640Y924137D01*
X1311487Y924984D01*
Y926676D01*
X1312333Y927523D01*
X1313180Y926676D01*
Y924137D01*
X1308948Y922444D02*
Y919059D01*
X1314872Y917366D02*
X1309794Y913980D01*
X1314872D02*
X1309794Y917366D01*
X1312333Y912288D02*
Y908902D01*
X1309794Y907209D02*
X1313180D01*
X1314872Y905517D01*
X1313180Y903824D01*
X1309794D01*
X1312333D01*
Y907209D01*
X1313180Y902131D02*
X1309794Y898745D01*
X1311487Y900438D01*
X1313180Y898745D01*
X1309794Y902131D01*
Y897053D02*
Y895360D01*
Y896206D01*
X1313180D01*
Y897053D01*
X1309794Y892821D02*
Y890282D01*
X1310640Y889435D01*
X1311487Y890282D01*
Y891974D01*
X1312333Y892821D01*
X1313180Y891974D01*
Y889435D01*
X944034Y541855D02*
Y540162D01*
Y541008D01*
X949112D01*
X948266Y541855D01*
Y537623D02*
X949112Y536776D01*
Y535084D01*
X948266Y534237D01*
X944880D01*
X944034Y535084D01*
Y536776D01*
X944880Y537623D01*
X948266D01*
X944034Y532545D02*
X949112D01*
X945727D02*
X947420Y530005D01*
X945727Y532545D02*
X944034Y530005D01*
X949112Y519849D02*
Y521541D01*
X948266Y522388D01*
X944880D01*
X944034Y521541D01*
Y519849D01*
X944880Y519002D01*
X948266D01*
X949112Y519849D01*
Y517309D02*
X944034D01*
X946573D01*
X947420Y516463D01*
Y514770D01*
X946573Y513924D01*
X944034D01*
Y512231D02*
X947420D01*
Y511385D01*
X946573Y510538D01*
X944034D01*
X946573D01*
X947420Y509692D01*
X946573Y508845D01*
X944034D01*
Y507153D02*
Y504614D01*
X944880Y503767D01*
X945727Y504614D01*
Y506306D01*
X946573Y507153D01*
X947420Y506306D01*
Y503767D01*
X943188Y502074D02*
Y498689D01*
X949112Y496996D02*
X944034D01*
X946573D01*
Y493610D01*
X949112D01*
X944034D01*
Y491071D02*
Y489379D01*
X944880Y488532D01*
X946573D01*
X947420Y489379D01*
Y491071D01*
X946573Y491918D01*
X944880D01*
X944034Y491071D01*
X948266Y485993D02*
X947420D01*
Y486839D01*
Y485147D01*
Y485993D01*
X944880D01*
X944034Y485147D01*
Y480068D02*
Y481761D01*
X944880Y482607D01*
X946573D01*
X947420Y481761D01*
Y480068D01*
X946573Y479222D01*
X945727D01*
Y482607D01*
X944034Y477529D02*
X947420D01*
Y474990D01*
X946573Y474143D01*
X944034D01*
X949112Y469065D02*
X944034D01*
Y471604D01*
X944880Y472451D01*
X946573D01*
X947420Y471604D01*
Y469065D01*
X604531Y545254D02*
X606224D01*
X605378D01*
Y550332D01*
X604531Y549486D01*
X608763D02*
X609609Y550332D01*
X611302D01*
X612149Y549486D01*
Y546100D01*
X611302Y545254D01*
X609609D01*
X608763Y546100D01*
Y549486D01*
X613842Y545254D02*
Y550332D01*
Y546947D02*
X616381Y548640D01*
X613842Y546947D02*
X616381Y545254D01*
X626537Y550332D02*
X624845D01*
X623998Y549486D01*
Y546100D01*
X624845Y545254D01*
X626537D01*
X627384Y546100D01*
Y549486D01*
X626537Y550332D01*
X629076D02*
Y545254D01*
Y547793D01*
X629923Y548640D01*
X631616D01*
X632462Y547793D01*
Y545254D01*
X634155D02*
Y548640D01*
X635001D01*
X635848Y547793D01*
Y545254D01*
Y547793D01*
X636694Y548640D01*
X637540Y547793D01*
Y545254D01*
X639233D02*
X641772D01*
X642619Y546100D01*
X641772Y546947D01*
X640080D01*
X639233Y547793D01*
X640080Y548640D01*
X642619D01*
X644312Y544408D02*
X647697D01*
X652775Y550332D02*
X649390D01*
Y547793D01*
X651083D01*
X649390D01*
Y545254D01*
X655315Y548640D02*
X657007D01*
X657854Y547793D01*
Y545254D01*
X655315D01*
X654468Y546100D01*
X655315Y546947D01*
X657854D01*
X659547Y545254D02*
Y548640D01*
X662086D01*
X662932Y547793D01*
Y545254D01*
X664625Y544408D02*
X668010D01*
X673089Y545254D02*
X669703D01*
X673089Y548640D01*
Y549486D01*
X672243Y550332D01*
X670550D01*
X669703Y549486D01*
X737458Y545254D02*
X739150D01*
X738304D01*
Y550332D01*
X737458Y549486D01*
X741690D02*
X742536Y550332D01*
X744229D01*
X745075Y549486D01*
Y546100D01*
X744229Y545254D01*
X742536D01*
X741690Y546100D01*
Y549486D01*
X746768Y545254D02*
Y550332D01*
Y546947D02*
X749307Y548640D01*
X746768Y546947D02*
X749307Y545254D01*
X759464Y550332D02*
X757771D01*
X756925Y549486D01*
Y546100D01*
X757771Y545254D01*
X759464D01*
X760310Y546100D01*
Y549486D01*
X759464Y550332D01*
X762003D02*
Y545254D01*
Y547793D01*
X762849Y548640D01*
X764542D01*
X765388Y547793D01*
Y545254D01*
X767081D02*
Y548640D01*
X767928D01*
X768774Y547793D01*
Y545254D01*
Y547793D01*
X769620Y548640D01*
X770467Y547793D01*
Y545254D01*
X772160D02*
X774699D01*
X775545Y546100D01*
X774699Y546947D01*
X773006D01*
X772160Y547793D01*
X773006Y548640D01*
X775545D01*
X777238Y544408D02*
X780623D01*
X785702Y550332D02*
X782316D01*
Y547793D01*
X784009D01*
X782316D01*
Y545254D01*
X788241Y548640D02*
X789934D01*
X790780Y547793D01*
Y545254D01*
X788241D01*
X787395Y546100D01*
X788241Y546947D01*
X790780D01*
X792473Y545254D02*
Y548640D01*
X795012D01*
X795859Y547793D01*
Y545254D01*
X797551Y544408D02*
X800937D01*
X802630Y545254D02*
X804323D01*
X803476D01*
Y550332D01*
X802630Y549486D01*
D14*
X275589Y915663D02*
Y920741D01*
X267971D01*
Y915663D01*
X271780Y920741D02*
Y918202D01*
Y913123D02*
Y908045D01*
X275589Y905506D02*
X267971D01*
Y901697D01*
X269241Y900427D01*
X274319D01*
X275589Y901697D01*
Y905506D01*
X273050Y897888D02*
X267971D01*
X270510D01*
X271780Y896619D01*
X273050Y895349D01*
Y894080D01*
X267971Y890271D02*
Y887732D01*
Y889001D01*
X273050D01*
Y890271D01*
Y883923D02*
X267971Y881384D01*
X273050Y878845D01*
X267971Y872497D02*
Y875036D01*
X269241Y876305D01*
X271780D01*
X273050Y875036D01*
Y872497D01*
X271780Y871227D01*
X270510D01*
Y876305D01*
X273050Y868688D02*
X267971D01*
X270510D01*
X271780Y867418D01*
X273050Y866149D01*
Y864879D01*
X604529Y1257299D02*
X609607Y1249681D01*
Y1257299D02*
X604529Y1249681D01*
X612147Y1253490D02*
X617225D01*
X619764Y1257299D02*
Y1249681D01*
X623573D01*
X624842Y1250951D01*
Y1256029D01*
X623573Y1257299D01*
X619764D01*
X627382Y1254760D02*
Y1249681D01*
Y1252220D01*
X628651Y1253490D01*
X629921Y1254760D01*
X631190D01*
X634999Y1249681D02*
X637538D01*
X636269D01*
Y1254760D01*
X634999D01*
X641347D02*
X643886Y1249681D01*
X646425Y1254760D01*
X652773Y1249681D02*
X650234D01*
X648965Y1250951D01*
Y1253490D01*
X650234Y1254760D01*
X652773D01*
X654043Y1253490D01*
Y1252220D01*
X648965D01*
X656582Y1254760D02*
Y1249681D01*
Y1252220D01*
X657852Y1253490D01*
X659121Y1254760D01*
X660391D01*
X414029Y1257299D02*
Y1256029D01*
X416568Y1253490D01*
X419107Y1256029D01*
Y1257299D01*
X416568Y1253490D02*
Y1249681D01*
X421647Y1253490D02*
X426725D01*
X429264Y1257299D02*
Y1249681D01*
X433073D01*
X434342Y1250951D01*
Y1256029D01*
X433073Y1257299D01*
X429264D01*
X436882Y1254760D02*
Y1249681D01*
Y1252220D01*
X438151Y1253490D01*
X439421Y1254760D01*
X440690D01*
X444499Y1249681D02*
X447038D01*
X445769D01*
Y1254760D01*
X444499D01*
X450847D02*
X453386Y1249681D01*
X455925Y1254760D01*
X462273Y1249681D02*
X459734D01*
X458465Y1250951D01*
Y1253490D01*
X459734Y1254760D01*
X462273D01*
X463543Y1253490D01*
Y1252220D01*
X458465D01*
X466082Y1254760D02*
Y1249681D01*
Y1252220D01*
X467352Y1253490D01*
X468621Y1254760D01*
X469891D01*
X275589Y1111241D02*
Y1106163D01*
X274319D01*
X269241Y1111241D01*
X267971D01*
Y1106163D01*
X271780Y1103623D02*
Y1098545D01*
X275589Y1096006D02*
X267971D01*
Y1092197D01*
X269241Y1090928D01*
X274319D01*
X275589Y1092197D01*
Y1096006D01*
X273050Y1088388D02*
X267971D01*
X270510D01*
X271780Y1087119D01*
X273050Y1085849D01*
Y1084580D01*
X267971Y1080771D02*
Y1078232D01*
Y1079501D01*
X273050D01*
Y1080771D01*
Y1074423D02*
X267971Y1071884D01*
X273050Y1069344D01*
X267971Y1062997D02*
Y1065536D01*
X269241Y1066805D01*
X271780D01*
X273050Y1065536D01*
Y1062997D01*
X271780Y1061727D01*
X270510D01*
Y1066805D01*
X273050Y1059188D02*
X267971D01*
X270510D01*
X271780Y1057918D01*
X273050Y1056649D01*
Y1055379D01*
X1459877Y440688D02*
X1462417D01*
X1461147D01*
Y433071D01*
X1459877D01*
X1462417D01*
X1466225D02*
Y438149D01*
X1470034D01*
X1471304Y436880D01*
Y433071D01*
X1473843Y430532D02*
Y438149D01*
X1477652D01*
X1478921Y436880D01*
Y434340D01*
X1477652Y433071D01*
X1473843D01*
X1481461Y438149D02*
Y434340D01*
X1482730Y433071D01*
X1486539D01*
Y438149D01*
X1490348Y439419D02*
Y438149D01*
X1489078D01*
X1491617D01*
X1490348D01*
Y434340D01*
X1491617Y433071D01*
X1503044D02*
Y440688D01*
X1506852D01*
X1508122Y439419D01*
Y436880D01*
X1506852Y435610D01*
X1503044D01*
X1511931Y433071D02*
X1514470D01*
X1515739Y434340D01*
Y436880D01*
X1514470Y438149D01*
X1511931D01*
X1510661Y436880D01*
Y434340D01*
X1511931Y433071D01*
X1518279Y438149D02*
Y434340D01*
X1519548Y433071D01*
X1520818Y434340D01*
X1522087Y433071D01*
X1523357Y434340D01*
Y438149D01*
X1529705Y433071D02*
X1527166D01*
X1525896Y434340D01*
Y436880D01*
X1527166Y438149D01*
X1529705D01*
X1530974Y436880D01*
Y435610D01*
X1525896D01*
X1533514Y438149D02*
Y433071D01*
Y435610D01*
X1534783Y436880D01*
X1536053Y438149D01*
X1537323D01*
X866782Y278129D02*
Y270511D01*
Y274320D01*
X871860D01*
Y278129D01*
Y270511D01*
X875669D02*
X878208D01*
X879478Y271781D01*
Y274320D01*
X878208Y275590D01*
X875669D01*
X874399Y274320D01*
Y271781D01*
X875669Y270511D01*
X883286Y276859D02*
Y275590D01*
X882017D01*
X884556D01*
X883286D01*
Y271781D01*
X884556Y270511D01*
X892174D02*
X889634D01*
X888365Y271781D01*
Y274320D01*
X889634Y275590D01*
X892174D01*
X893443Y274320D01*
Y273050D01*
X888365D01*
X895982Y270511D02*
Y275590D01*
X899791D01*
X901061Y274320D01*
Y270511D01*
X908678Y278129D02*
Y270511D01*
X904870D01*
X903600Y271781D01*
Y274320D01*
X904870Y275590D01*
X908678D01*
X1156347Y438149D02*
Y430531D01*
Y434340D01*
X1161425D01*
Y438149D01*
Y430531D01*
X1167773D02*
X1165234D01*
X1163964Y431801D01*
Y434340D01*
X1165234Y435610D01*
X1167773D01*
X1169043Y434340D01*
Y433070D01*
X1163964D01*
X1172851Y435610D02*
X1175391D01*
X1176660Y434340D01*
Y430531D01*
X1172851D01*
X1171582Y431801D01*
X1172851Y433070D01*
X1176660D01*
X1180469Y436879D02*
Y435610D01*
X1179199D01*
X1181739D01*
X1180469D01*
Y431801D01*
X1181739Y430531D01*
X1189356D02*
X1186817D01*
X1185547Y431801D01*
Y434340D01*
X1186817Y435610D01*
X1189356D01*
X1190626Y434340D01*
Y433070D01*
X1185547D01*
X1198243Y438149D02*
Y430531D01*
X1194434D01*
X1193165Y431801D01*
Y434340D01*
X1194434Y435610D01*
X1198243D01*
X1208400Y438149D02*
Y430531D01*
X1212209D01*
X1213478Y431801D01*
Y433070D01*
X1212209Y434340D01*
X1208400D01*
X1212209D01*
X1213478Y435610D01*
Y436879D01*
X1212209Y438149D01*
X1208400D01*
X1219826Y430531D02*
X1217287D01*
X1216017Y431801D01*
Y434340D01*
X1217287Y435610D01*
X1219826D01*
X1221096Y434340D01*
Y433070D01*
X1216017D01*
X1228713Y438149D02*
Y430531D01*
X1224904D01*
X1223635Y431801D01*
Y434340D01*
X1224904Y435610D01*
X1228713D01*
D15*
X1150639Y1233167D02*
Y1217933D01*
Y1225550D01*
X1160796D01*
Y1233167D01*
Y1217933D01*
X1173492D02*
X1168413D01*
X1165874Y1220472D01*
Y1225550D01*
X1168413Y1228089D01*
X1173492D01*
X1176031Y1225550D01*
Y1223011D01*
X1165874D01*
X1183648Y1228089D02*
X1188727D01*
X1191266Y1225550D01*
Y1217933D01*
X1183648D01*
X1181109Y1220472D01*
X1183648Y1223011D01*
X1191266D01*
X1206501Y1233167D02*
Y1217933D01*
X1198883D01*
X1196344Y1220472D01*
Y1225550D01*
X1198883Y1228089D01*
X1206501D01*
X1219197Y1217933D02*
X1214118D01*
X1211579Y1220472D01*
Y1225550D01*
X1214118Y1228089D01*
X1219197D01*
X1221736Y1225550D01*
Y1223011D01*
X1211579D01*
X1226814Y1228089D02*
Y1217933D01*
Y1223011D01*
X1229353Y1225550D01*
X1231893Y1228089D01*
X1234432D01*
X1267441Y1217933D02*
X1257284D01*
X1267441Y1228089D01*
Y1230628D01*
X1264902Y1233167D01*
X1259824D01*
X1257284Y1230628D01*
X923308Y1230628D02*
Y1215393D01*
Y1223010D01*
X933465D01*
Y1230628D01*
Y1215393D01*
X946161D02*
X941082D01*
X938543Y1217932D01*
Y1223010D01*
X941082Y1225549D01*
X946161D01*
X948700Y1223010D01*
Y1220471D01*
X938543D01*
X956317Y1225549D02*
X961396D01*
X963935Y1223010D01*
Y1215393D01*
X956317D01*
X953778Y1217932D01*
X956317Y1220471D01*
X963935D01*
X979170Y1230628D02*
Y1215393D01*
X971553D01*
X969013Y1217932D01*
Y1223010D01*
X971553Y1225549D01*
X979170D01*
X991866Y1215393D02*
X986788D01*
X984248Y1217932D01*
Y1223010D01*
X986788Y1225549D01*
X991866D01*
X994405Y1223010D01*
Y1220471D01*
X984248D01*
X999483Y1225549D02*
Y1215393D01*
Y1220471D01*
X1002023Y1223010D01*
X1004562Y1225549D01*
X1007101D01*
X1029954Y1215393D02*
X1035032D01*
X1032493D01*
Y1230628D01*
X1029954Y1228088D01*
X1501175Y1097278D02*
Y1082042D01*
X1508793D01*
X1511332Y1084582D01*
Y1094738D01*
X1508793Y1097278D01*
X1501175D01*
X1526567Y1094738D02*
X1524028Y1097278D01*
X1518950D01*
X1516410Y1094738D01*
Y1084582D01*
X1518950Y1082042D01*
X1524028D01*
X1526567Y1084582D01*
X1531646Y1089660D02*
X1541802D01*
X1546880Y1097278D02*
Y1082042D01*
X1554498D01*
X1557037Y1084582D01*
Y1094738D01*
X1554498Y1097278D01*
X1546880D01*
X1572272Y1094738D02*
X1569733Y1097278D01*
X1564655D01*
X1562116Y1094738D01*
Y1084582D01*
X1564655Y1082042D01*
X1569733D01*
X1572272Y1084582D01*
X1602742Y1094738D02*
X1600203Y1097278D01*
X1595125D01*
X1592586Y1094738D01*
Y1084582D01*
X1595125Y1082042D01*
X1600203D01*
X1602742Y1084582D01*
X1610360Y1082042D02*
X1615438D01*
X1617978Y1084582D01*
Y1089660D01*
X1615438Y1092199D01*
X1610360D01*
X1607821Y1089660D01*
Y1084582D01*
X1610360Y1082042D01*
X1623056D02*
Y1092199D01*
X1630673D01*
X1633213Y1089660D01*
Y1082042D01*
X1638291Y1092199D02*
X1643369Y1082042D01*
X1648448Y1092199D01*
X1661144Y1082042D02*
X1656065D01*
X1653526Y1084582D01*
Y1089660D01*
X1656065Y1092199D01*
X1661144D01*
X1663683Y1089660D01*
Y1087121D01*
X1653526D01*
X1668761Y1092199D02*
Y1082042D01*
Y1087121D01*
X1671300Y1089660D01*
X1673840Y1092199D01*
X1676379D01*
X1686535Y1094738D02*
Y1092199D01*
X1683996D01*
X1689075D01*
X1686535D01*
Y1084582D01*
X1689075Y1082042D01*
X1704310D02*
X1699231D01*
X1696692Y1084582D01*
Y1089660D01*
X1699231Y1092199D01*
X1704310D01*
X1706849Y1089660D01*
Y1087121D01*
X1696692D01*
X1711927Y1092199D02*
Y1082042D01*
Y1087121D01*
X1714466Y1089660D01*
X1717005Y1092199D01*
X1719545D01*
M02*
