G04*
G04 #@! TF.GenerationSoftware,Altium Limited,Altium Designer,22.10.1 (41)*
G04*
G04 Layer_Color=8388736*
%FSLAX44Y44*%
%MOMM*%
G71*
G04*
G04 #@! TF.SameCoordinates,1C1781D4-92CB-4499-AA76-0FF4777072F7*
G04*
G04*
G04 #@! TF.FilePolarity,Negative*
G04*
G01*
G75*
%ADD16R,1.9532X1.2032*%
%ADD17R,1.2032X1.9532*%
%ADD18C,2.0782*%
%ADD19R,2.0782X2.0782*%
%ADD20R,2.0782X2.0782*%
%ADD21C,2.1532*%
%ADD22R,1.8532X1.8532*%
%ADD23C,1.8532*%
%ADD24R,1.8532X1.8532*%
%ADD25C,1.4032*%
%ADD26R,1.4032X1.4032*%
%ADD27C,1.8682*%
%ADD28R,1.8682X1.8682*%
%ADD29C,1.4732*%
%ADD30C,1.9812*%
%ADD31C,5.2832*%
%ADD32C,3.3782*%
D16*
X1329690Y944640D02*
D03*
Y914640D02*
D03*
X1291590Y944880D02*
D03*
Y914880D02*
D03*
X1253490Y944880D02*
D03*
Y914880D02*
D03*
X962660Y547370D02*
D03*
Y517370D02*
D03*
X1262380Y506970D02*
D03*
Y536970D02*
D03*
D17*
X1050050Y444500D02*
D03*
X1020050D02*
D03*
X1348500Y474980D02*
D03*
X1318500D02*
D03*
X643650Y566420D02*
D03*
X613650D02*
D03*
X747240D02*
D03*
X777240D02*
D03*
D18*
X883920Y496570D02*
D03*
Y521970D02*
D03*
X1188720Y496570D02*
D03*
Y521970D02*
D03*
X777240Y469900D02*
D03*
X751840D02*
D03*
X643890D02*
D03*
X618490D02*
D03*
D19*
X883920Y547370D02*
D03*
X1188720D02*
D03*
D20*
X726440Y469900D02*
D03*
X593090D02*
D03*
D21*
X1536700Y336550D02*
D03*
X1460500D02*
D03*
X927100D02*
D03*
X850900D02*
D03*
X1155700D02*
D03*
X1231900D02*
D03*
D22*
X1336440Y307340D02*
D03*
X1031640D02*
D03*
X593490D02*
D03*
X726840D02*
D03*
X500780D02*
D03*
X409340D02*
D03*
X503860Y1221740D02*
D03*
X695230Y1220470D02*
D03*
D23*
X1361440Y307340D02*
D03*
X1056640D02*
D03*
X618490D02*
D03*
X751840D02*
D03*
X525780D02*
D03*
X434340D02*
D03*
X307340Y391560D02*
D03*
X304800Y830980D02*
D03*
Y855980D02*
D03*
Y880980D02*
D03*
Y905980D02*
D03*
Y930980D02*
D03*
Y1021080D02*
D03*
Y1046080D02*
D03*
Y1071080D02*
D03*
Y1096080D02*
D03*
Y1121080D02*
D03*
X378860Y1221740D02*
D03*
X403860D02*
D03*
X428860D02*
D03*
X453860D02*
D03*
X478860D02*
D03*
X570230Y1220470D02*
D03*
X595230D02*
D03*
X620230D02*
D03*
X645230D02*
D03*
X670230D02*
D03*
D24*
X307340Y416560D02*
D03*
X304800Y955980D02*
D03*
Y1146080D02*
D03*
D25*
X979170Y1196340D02*
D03*
Y1176340D02*
D03*
Y1156340D02*
D03*
Y1116340D02*
D03*
Y1096340D02*
D03*
Y1076340D02*
D03*
Y1056340D02*
D03*
Y1036340D02*
D03*
Y1016340D02*
D03*
Y996340D02*
D03*
Y976340D02*
D03*
Y876340D02*
D03*
Y856340D02*
D03*
Y836340D02*
D03*
Y816340D02*
D03*
Y916340D02*
D03*
Y936340D02*
D03*
Y956340D02*
D03*
Y1136340D02*
D03*
Y896340D02*
D03*
Y796340D02*
D03*
X1209040Y776340D02*
D03*
Y796340D02*
D03*
Y816340D02*
D03*
Y836340D02*
D03*
Y856340D02*
D03*
Y876340D02*
D03*
Y896340D02*
D03*
Y916340D02*
D03*
Y936340D02*
D03*
Y956340D02*
D03*
Y976340D02*
D03*
Y996340D02*
D03*
Y1016340D02*
D03*
Y1036340D02*
D03*
Y1056340D02*
D03*
Y1076340D02*
D03*
Y1096340D02*
D03*
Y1116340D02*
D03*
Y1156340D02*
D03*
Y1176340D02*
D03*
Y1136340D02*
D03*
D26*
X979170Y776340D02*
D03*
X1209040Y1196340D02*
D03*
D27*
X1609090Y1051560D02*
D03*
Y1026160D02*
D03*
Y1000760D02*
D03*
Y975360D02*
D03*
Y949960D02*
D03*
Y924560D02*
D03*
Y899160D02*
D03*
Y695960D02*
D03*
Y670560D02*
D03*
Y645160D02*
D03*
Y619760D02*
D03*
Y594360D02*
D03*
D28*
Y568960D02*
D03*
D29*
X1200150Y715010D02*
D03*
X979170Y461010D02*
D03*
X1319824Y1136499D02*
D03*
X1361530Y688430D02*
D03*
X1361440Y509270D02*
D03*
Y367030D02*
D03*
X664210Y566420D02*
D03*
X1289050Y496570D02*
D03*
X1143000Y1035050D02*
D03*
X1051560Y690880D02*
D03*
X1226820Y692150D02*
D03*
X1334770Y509270D02*
D03*
X440690Y980440D02*
D03*
X568960Y1129030D02*
D03*
X394970Y1021080D02*
D03*
X443462Y1119133D02*
D03*
X1334770Y709930D02*
D03*
X1050290Y648970D02*
D03*
X1228090D02*
D03*
X1226820Y670560D02*
D03*
X1050290Y669290D02*
D03*
X1062990Y628650D02*
D03*
X1003300Y565150D02*
D03*
X1108710Y755650D02*
D03*
X1125220Y955040D02*
D03*
X1073150Y464820D02*
D03*
X1104425Y466035D02*
D03*
X1336040Y367030D02*
D03*
X791210Y369570D02*
D03*
X841921Y460426D02*
D03*
X1135380Y449580D02*
D03*
X797560Y566420D02*
D03*
D30*
X596900Y1101090D02*
D03*
X482600Y930910D02*
D03*
X378460Y1154430D02*
D03*
X394970Y1103630D02*
D03*
X934720Y720090D02*
D03*
X482600Y994410D02*
D03*
X524510Y830580D02*
D03*
X1388110Y638810D02*
D03*
D31*
X1727200Y304800D02*
D03*
Y1219200D02*
D03*
X304800D02*
D03*
Y304800D02*
D03*
D32*
X1648460Y336550D02*
D03*
M02*
